<?xml version="1.0" encoding="UTF-8"?>
<svg version="1.1" xmlns="http://www.w3.org/2000/svg" width="1200" height="1200">
<path d="M0 0 C1.55044271 -0.00302532 3.10088393 -0.0069167 4.65132254 -0.01159257 C8.88645887 -0.02183237 13.12151016 -0.01970104 17.35665333 -0.01541197 C21.93414851 -0.01293741 26.51162359 -0.02196797 31.08911133 -0.02944946 C40.04726127 -0.04217835 49.00538122 -0.0439924 57.96353868 -0.0416492 C65.2476755 -0.03986381 72.53180322 -0.04162041 79.81593895 -0.04587364 C81.37294392 -0.04676643 81.37294392 -0.04676643 82.96140354 -0.04767724 C85.07033843 -0.04888904 87.17927332 -0.05010317 89.28820821 -0.05131962 C109.05208626 -0.06218824 128.81594724 -0.06003591 148.57982626 -0.05393478 C166.643632 -0.04876653 184.7073838 -0.06001985 202.77117888 -0.07903299 C221.33770357 -0.09842485 239.90420276 -0.10666501 258.47073764 -0.10290974 C268.88695119 -0.10099971 279.30311884 -0.10346599 289.71932411 -0.11762428 C298.58706091 -0.12955624 307.45472355 -0.13092264 316.3224614 -0.11883412 C320.84269024 -0.11295811 325.36278354 -0.11181049 329.88300323 -0.12383652 C334.02894753 -0.13473817 338.17464384 -0.13154148 342.32057675 -0.11757483 C343.81241169 -0.11493963 345.30426635 -0.11725704 346.79608188 -0.1253107 C364.6404017 -0.21488158 379.79869434 2.82260166 393.30949402 15.19819641 C405.84193444 28.94714474 410.35310336 47.84966154 415.96507263 65.17390442 C417.67982653 70.45788917 419.41834117 75.73415343 421.15212631 81.01191711 C421.59873425 82.37227424 422.04485643 83.73279094 422.49051285 85.09346008 C426.28851763 96.68937548 430.19776299 108.24496932 434.15324402 119.78804016 C439.29668761 134.79884113 444.39879226 149.82282188 449.45793152 164.86225891 C449.79601271 165.86716118 450.13409389 166.87206345 450.48241997 167.9074173 C452.22554359 173.08923343 453.96791385 178.27130243 455.70979309 183.45353699 C459.45021242 194.58148699 463.19444004 205.7081561 466.93840027 216.83491516 C467.31038984 217.94052607 467.68237942 219.04613697 468.0656414 220.18525124 C474.6301068 239.69526626 481.21261083 259.19912179 487.80949402 278.69819641 C489.71459852 284.32965387 491.61958006 289.9611529 493.52433777 295.59272766 C493.88003405 296.64434774 493.88003405 296.64434774 494.24291611 297.71721268 C500.79918911 317.10223705 507.33485352 336.49421378 513.87199402 355.88569641 C516.33544611 363.19301828 518.79896965 370.50031605 521.26261902 377.80757141 C521.56627192 378.7082176 521.86992481 379.60886379 522.18277931 380.53680229 C528.65676153 399.73837774 535.13829025 418.93740175 541.62199402 438.13569641 C542.15681509 439.71932458 542.69163564 441.30295291 543.22645569 442.88658142 C543.76121517 444.47002666 544.29597469 446.0534719 544.83073425 447.63691711 C545.63301292 450.01249838 546.43529074 452.38807992 547.23756599 454.76366234 C547.77228618 456.34699777 548.30700882 457.93033238 548.84173393 459.51366615 C555.20851359 478.36599027 561.57170704 497.21952443 567.93449402 516.07319641 C568.4989672 517.74578358 569.06344067 519.41837066 569.62791443 521.09095764 C571.88823268 527.78850011 574.14853245 534.48604882 576.40879822 541.18360901 C580.3560246 552.8799253 584.30340285 564.57619034 588.25090027 576.27241516 C588.66838185 577.50939116 588.66838185 577.50939116 589.09429741 578.77135658 C590.4996965 582.93547766 591.90509821 587.09959786 593.3105011 591.26371765 C595.84140931 598.7626426 598.37229426 606.26157541 600.90318108 613.76050758 C602.30945112 617.92723751 603.71572264 622.09396694 605.12199402 626.26069641 C605.68449403 627.92736308 606.24699403 629.59402974 606.80949402 631.26069641 C607.08793152 632.08569641 607.36636902 632.91069641 607.65324402 633.76069641 C626.49699402 689.59402974 645.34074402 745.42736308 664.18449402 801.26069641 C664.46293813 802.08571561 664.74138224 802.91073481 665.02826405 803.76075459 C665.59069823 805.42722702 666.15313147 807.09369977 666.71556377 808.76017284 C668.12281302 812.92981386 669.5300787 817.09944934 670.93737793 821.26907349 C673.45671281 828.7335505 675.97594073 836.19806351 678.49453831 843.66278934 C679.88459713 847.78269251 681.27475443 851.90256245 682.66496277 856.02241516 C682.94084921 856.84000494 683.21673565 857.65759472 683.50098228 858.49995995 C687.36241697 869.94269749 691.22848311 881.38386203 695.09773254 892.82395935 C697.27106502 899.24985581 699.44316573 905.67616845 701.61499977 912.10257149 C703.0926957 916.47472266 704.5710851 920.84663659 706.05119324 925.2179718 C709.13521211 934.32722586 712.20937517 943.43961279 715.25810242 952.56074524 C716.03079009 954.86837785 716.80682349 957.17489617 717.5879364 959.47969055 C723.53098866 977.03562921 723.53098866 977.03562921 723.12199402 985.63569641 C723.10016052 986.4638385 723.07832703 987.29198059 723.05583191 988.1452179 C722.41785029 1002.75343407 716.45104123 1015.37059295 705.78996277 1025.41304016 C694.50156257 1034.50914458 682.09755916 1038.38050973 667.71896076 1038.38933086 C666.74733257 1038.39196042 666.74733257 1038.39196042 665.75607553 1038.3946431 C663.59460478 1038.39927954 661.43320199 1038.39684371 659.27172852 1038.39440918 C657.70268995 1038.39627834 656.13365184 1038.39857947 654.56461447 1038.4012745 C650.25959234 1038.40738596 645.95458963 1038.40725967 641.64956415 1038.40608013 C637.00387611 1038.40587595 632.35819429 1038.41139651 627.71250916 1038.4161377 C618.61278147 1038.42444144 609.51306026 1038.42719242 600.4133291 1038.42775007 C593.01514212 1038.42822541 585.61695728 1038.43028102 578.21877098 1038.4334507 C557.23731657 1038.44225686 536.25586727 1038.44687019 515.274411 1038.44612022 C514.14347619 1038.44608027 513.01254138 1038.44604031 511.84733582 1038.44599915 C510.71501782 1038.44595826 509.58269983 1038.44591738 508.41606917 1038.44587526 C490.06937681 1038.4454689 471.72270498 1038.45503609 453.37601856 1038.46913751 C434.53165075 1038.48350699 415.68729295 1038.49040737 396.84291953 1038.48954374 C386.26575236 1038.48921194 375.68860671 1038.49195123 365.11144447 1038.50272179 C356.10486267 1038.51183434 347.09831214 1038.51399586 338.09172771 1038.50721236 C333.49889121 1038.50395086 328.90611469 1038.50387711 324.31328392 1038.51256561 C320.10318651 1038.52044795 315.89319647 1038.51898151 311.68310162 1038.51028148 C310.16561027 1038.5087503 308.64811085 1038.51054817 307.13062904 1038.51614156 C295.49648274 1038.5561609 284.00214564 1038.3251751 273.49699402 1032.82319641 C272.82112244 1032.47611633 272.14525085 1032.12903625 271.44889832 1031.7714386 C265.05192248 1028.31394084 260.05926632 1023.84004454 254.96232605 1018.71382141 C252.46261302 1016.23493238 249.84704347 1013.88329593 247.24699402 1011.51069641 C240.9753711 1005.7300936 234.75832429 999.89141686 228.53996277 994.05366516 C224.67777324 990.42840842 220.80779023 986.81158074 216.93449402 983.19819641 C216.0124115 982.33798889 216.0124115 982.33798889 215.07170105 981.46040344 C213.83313793 980.30508321 212.59453125 979.14980967 211.35588074 977.99458313 C208.23553099 975.0840599 205.116323 972.17231354 201.99699402 969.26069641 C200.74699943 968.09402395 199.49699943 966.92735728 198.24699402 965.76069641 C190.74699402 958.76069641 183.24699402 951.76069641 175.74699402 944.76069641 C174.81898987 943.89456726 174.81898987 943.89456726 173.87223816 943.01094055 C172.62140271 941.84348328 171.37058893 940.67600278 170.11979675 939.50849915 C167.0077558 936.60373867 163.8953475 933.69937389 160.78215027 930.79585266 C153.67186219 924.16356714 146.57157089 917.52079939 139.47990417 910.86860657 C133.11531506 904.89977524 126.73690162 898.94583781 120.35588074 892.99458313 C117.23553099 890.0840599 114.116323 887.17231354 110.99699402 884.26069641 C109.74699943 883.09402395 108.49699943 881.92735728 107.24699402 880.76069641 C94.74699402 869.09402974 82.24699402 857.42736308 69.74699402 845.76069641 C69.12727722 845.18231018 68.50756042 844.60392395 67.86906433 844.00801086 C66.6287649 842.85036571 65.38852971 841.69265174 64.14836121 840.53486633 C60.87548691 837.47958044 57.60125164 834.42576972 54.32511902 831.37397766 C53.64256042 830.73782532 52.96000183 830.10167297 52.25675964 829.44624329 C50.94857668 828.22705236 49.64000315 827.00828034 48.33097839 825.78999329 C47.7412323 825.24020813 47.15148621 824.69042297 46.54386902 824.12397766 C46.02663269 823.64227112 45.50939636 823.16056458 44.97648621 822.66426086 C43.45627768 821.22206964 41.97217334 819.74880142 40.49699402 818.26069641 C34.67494162 833.54189899 29.50361047 849.02954578 24.36903381 864.55110168 C21.91988461 871.95441648 19.45794593 879.35348608 16.99699402 886.75288391 C16.75439283 887.4826091 16.51179165 888.21233429 16.26183891 888.96417236 C11.85994225 902.20301968 7.39593214 915.41945719 2.85002136 928.60957336 C-0.27588846 937.68923075 -3.35085048 946.78445001 -6.37722778 955.89775085 C-8.01881559 960.84078257 -9.66943395 965.78078838 -11.32142925 970.72035027 C-12.71527045 974.89083545 -14.0975303 979.06492435 -15.47128296 983.24206638 C-16.12627016 985.22620667 -16.78753778 987.20812419 -17.45152283 989.18927002 C-18.26651098 991.62102616 -19.07196192 994.05601035 -19.86552429 996.49484253 C-25.30366053 1012.57525013 -33.47312216 1024.55820301 -48.51081848 1032.82319641 C-58.44113271 1037.59389567 -68.30993903 1038.41067632 -79.15914917 1038.40113831 C-80.22105939 1038.40410943 -81.28296961 1038.40708055 -82.37705892 1038.41014171 C-85.92954735 1038.41880187 -89.48200198 1038.42033469 -93.03450012 1038.42182922 C-95.58421398 1038.42645933 -98.13392716 1038.43148425 -100.68363953 1038.43687439 C-107.60749819 1038.44998266 -114.53134578 1038.45647754 -121.45521474 1038.46088505 C-125.78398145 1038.46365323 -130.11274594 1038.46789166 -134.44151115 1038.47238922 C-146.44203202 1038.48457825 -158.44255112 1038.49487791 -170.44307804 1038.49826431 C-171.21035686 1038.49848388 -171.97763568 1038.49870344 -172.76816538 1038.49892966 C-173.92173782 1038.49925708 -173.92173782 1038.49925708 -175.09861475 1038.49959111 C-176.65683305 1038.50003457 -178.21505135 1038.50048113 -179.77326965 1038.50093079 C-180.54618925 1038.50115222 -181.31910885 1038.50137365 -182.11545026 1038.50160179 C-194.62800276 1038.50554636 -207.14049691 1038.5229916 -219.65302689 1038.54629031 C-232.5196396 1038.57005361 -245.3862231 1038.58246844 -258.2528581 1038.58363223 C-265.46880648 1038.58454626 -272.68467883 1038.59022952 -279.90060616 1038.60845184 C-286.69271073 1038.62554422 -293.48464697 1038.6270684 -300.27677536 1038.61831284 C-302.76230569 1038.6175446 -305.24784389 1038.62185687 -307.73335457 1038.63177109 C-328.63170524 1038.71020623 -347.28339922 1037.97806036 -363.24909973 1022.67866516 C-374.85781028 1010.22495315 -378.13865368 997.4182846 -377.85700989 980.88032532 C-377.49764981 972.53502897 -374.99671865 965.24566171 -372.19050598 957.44819641 C-371.57360762 955.65461961 -370.9600901 953.85987745 -370.34944153 952.06416321 C-368.92751651 947.89726481 -367.4872898 943.73720498 -366.03718567 939.58003235 C-363.13603794 931.23559503 -360.32291522 922.8620458 -357.51081848 914.48725891 C-356.4183367 911.23564201 -355.32558246 907.98411672 -354.23274231 904.73262024 C-353.95468026 903.90520104 -353.67661821 903.07778185 -353.39013004 902.22528934 C-350.17650638 892.66626379 -346.94341079 883.11383682 -343.71003723 873.56147766 C-342.50242779 869.99331147 -341.29491608 866.42511222 -340.08747864 862.85688782 C-339.78915792 861.97529149 -339.49083719 861.09369516 -339.18347645 860.1853838 C-336.01838525 850.83055497 -332.85964414 841.47358569 -329.70222473 832.11616516 C-329.425301 831.29547358 -329.14837727 830.47478199 -328.8630619 829.62922096 C-327.46775764 825.49398857 -326.07256131 821.35871978 -324.67741394 817.22343445 C-322.15141574 809.73642383 -319.62445396 802.24973842 -317.09757423 794.76302528 C-315.69101291 790.59559535 -314.2845125 786.42814485 -312.87800598 782.26069641 C-312.31550627 780.59402965 -311.75300627 778.92736298 -311.19050598 777.26069641 C-310.91206848 776.43569641 -310.63363098 775.61069641 -310.34675598 774.76069641 C-282.50300598 692.26069641 -254.65925598 609.76069641 -118.81550598 207.26069641 C-118.53706219 206.43567753 -118.25861839 205.61065865 -117.97173691 204.76063919 C-117.40930106 203.09416307 -116.84686464 201.42768713 -116.28442764 199.7612114 C-114.87719148 195.59163101 -113.46996527 191.42204727 -112.0627594 187.25245667 C-109.5432957 179.78724635 -107.02376712 172.32205797 -104.50385666 164.85699844 C-103.11289802 160.736373 -101.72199903 156.61572743 -100.33113098 152.49507141 C-100.05512306 151.67736015 -99.77911514 150.8596489 -99.49474335 150.01715851 C-95.63666519 138.58669331 -91.78139161 127.15528522 -87.92805481 115.72322083 C-85.76486049 109.30550562 -83.60091769 102.88804285 -81.43681335 96.47063446 C-79.96532886 92.10692139 -78.49426468 87.74306765 -77.02424622 83.37886047 C-66.60613091 52.45082784 -66.60613091 52.45082784 -62.40925598 40.37397766 C-62.01314117 39.22672211 -62.01314117 39.22672211 -61.60902405 38.05628967 C-56.50601311 23.49286368 -48.33678565 12.76634697 -34.50300598 5.69819641 C-33.87539368 5.37568909 -33.24778137 5.05318176 -32.60115051 4.72090149 C-22.2942536 -0.14280542 -11.16594438 -0.03107994 0 0 Z M172.49699402 425.26069641 C165.37107688 444.67142732 158.71555485 464.22699218 152.12844467 483.82535934 C149.89369635 490.47089457 147.65221921 497.11416669 145.41219521 503.75792503 C144.58890603 506.20000577 143.76591435 508.64218662 142.94296265 511.0843811 C139.13520036 522.382096 135.30072125 533.67034547 131.43449402 544.94819641 C125.29704963 562.86413847 119.22618938 580.80252795 113.16009903 598.74272537 C112.17484592 601.65617448 111.1891042 604.56945813 110.20324516 607.48270226 C102.90679752 629.05551202 95.69865779 650.65570509 88.49699402 672.26069641 C143.93699402 672.26069641 199.37699402 672.26069641 256.49699402 672.26069641 C252.53699402 660.38069641 248.57699402 648.50069641 244.49699402 636.26069641 C242.97332214 631.67807922 241.44965027 627.09546204 239.87980652 622.37397766 C238.27516286 617.54985015 238.27516286 617.54985015 236.67033386 612.7257843 C235.97447752 610.63319163 235.27916021 608.54041963 234.58439636 606.44746399 C229.80225139 592.04401892 224.9382779 577.67035245 220.02433777 563.31147766 C211.95642799 539.73518614 204.00858255 516.11877611 196.06602478 492.50001526 C194.53840792 487.95803517 193.00993152 483.41634454 191.4814291 478.8746624 C189.63083609 473.3758414 187.78067593 467.87687479 185.93058777 462.37788391 C185.58864317 461.36160793 185.24669857 460.34533195 184.89439201 459.29825974 C181.07907008 447.957765 177.27190972 436.61471394 173.49699402 425.26069641 C173.16699402 425.26069641 172.83699402 425.26069641 172.49699402 425.26069641 Z " fill="#0B59A2" transform="translate(427.5030059814453,80.73930358886719)"/>
<path d="M0 0 C4.20688459 -0.03767907 8.41379956 -0.06471241 12.62077397 -0.09012651 C14.47640439 -0.10437905 16.33200416 -0.12396716 18.18750995 -0.1497674 C36.85178876 -0.4086906 52.7826033 1.90464612 67.10825258 15.02662516 C79.640693 28.77557349 84.15186193 47.67809029 89.7638312 65.00233316 C91.4785851 70.28631792 93.21709973 75.56258218 94.95088488 80.84034586 C95.39749282 82.20070299 95.843615 83.56121968 96.28927141 84.92188883 C100.08727619 96.51780423 103.99652155 108.07339807 107.95200258 119.61646891 C113.09544618 134.62726988 118.19755083 149.65125062 123.25669008 164.69068766 C123.76381187 166.19804106 123.76381187 166.19804106 124.28117853 167.73584604 C126.02430215 172.91766217 127.76667241 178.09973118 129.50855166 183.28196573 C133.24897099 194.40991573 136.99319861 205.53658485 140.73715883 216.66334391 C141.10914841 217.76895481 141.48113798 218.87456572 141.86439997 220.01367998 C148.42886536 239.52369501 155.0113694 259.02755054 161.60825258 278.52662516 C163.51335708 284.15808261 165.41833863 289.78958164 167.32309633 295.42115641 C167.56022719 296.12223646 167.79735804 296.82331652 168.04167467 297.54564142 C174.59794768 316.93066579 181.13361209 336.32264253 187.67075258 355.71412516 C190.13420468 363.02144702 192.59772821 370.3287448 195.06137758 377.63600016 C195.36503048 378.53664635 195.66868338 379.43729254 195.98153788 380.36523104 C202.45552009 399.56680649 208.93704882 418.7658305 215.42075258 437.96412516 C215.95557365 439.54775332 216.49039421 441.13138166 217.02521425 442.71501017 C217.55997374 444.29845541 218.09473326 445.88190064 218.62949282 447.46534586 C219.43177148 449.84092712 220.23404931 452.21650867 221.03632456 454.59209108 C221.57104474 456.17542652 222.10576739 457.75876113 222.6404925 459.3420949 C229.00727216 478.19441901 235.3704656 497.04795318 241.73325258 515.90162516 C242.29772577 517.57421233 242.86219924 519.24679941 243.426673 520.91938639 C245.68699125 527.61692886 247.94729102 534.31447757 250.20755678 541.01203775 C254.15478317 552.70835405 258.10216142 564.40461908 262.04965883 576.10084391 C262.46714042 577.33781991 262.46714042 577.33781991 262.89305598 578.59978533 C264.29845506 582.76390641 265.70385678 586.9280266 267.10925967 591.0921464 C269.64016788 598.59107135 272.17105282 606.09000416 274.70193964 613.58893633 C276.10820968 617.75566626 277.51448121 621.92239568 278.92075258 626.08912516 C279.48325259 627.75579182 280.04575259 629.42245849 280.60825258 631.08912516 C280.88669008 631.91412516 281.16512758 632.73912516 281.45200258 633.58912516 C300.29575258 689.42245849 319.13950258 745.25579182 337.98325258 801.08912516 C338.26169669 801.91414435 338.5401408 802.73916355 338.82702261 803.58918333 C339.3894568 805.25565577 339.95189004 806.92212852 340.51432234 808.58860159 C341.92157159 812.75824261 343.32883726 816.92787808 344.7361365 821.09750223 C347.25547138 828.56197925 349.7746993 836.02649226 352.29329687 843.49121809 C353.6833557 847.61112126 355.07351299 851.73099119 356.46372133 855.85084391 C356.877551 857.07722857 356.877551 857.07722857 357.29974085 858.32838869 C361.16117554 869.77112623 365.02724167 881.21229077 368.89649111 892.6523881 C371.06982359 899.07828456 373.2419243 905.50459719 375.41375834 911.93100023 C376.89145427 916.30315141 378.36984367 920.67506533 379.8499518 925.04640055 C382.93397067 934.15565461 386.00813374 943.26804153 389.05686098 952.38917398 C389.82954866 954.6968066 390.60558206 957.00332492 391.38669497 959.3081193 C397.32974722 976.86405795 397.32974722 976.86405795 396.92075258 985.46412516 C396.89891909 986.29226725 396.87708559 987.12040934 396.85459048 987.97364664 C396.21660885 1002.58186281 390.24979979 1015.19902169 379.58872133 1025.24146891 C368.45536455 1034.21264056 356.10866089 1038.21999496 341.90117556 1038.21058512 C340.64217503 1038.21210077 339.3831745 1038.21361643 338.08602244 1038.21517801 C336.69019325 1038.2116919 335.29436437 1038.20808071 333.89853579 1038.20435953 C332.38817449 1038.20394903 330.87781304 1038.20393726 329.36745173 1038.20428324 C325.15720769 1038.20374755 320.94699813 1038.19643614 316.73676378 1038.1878438 C313.06248525 1038.18108908 309.38820657 1038.17800539 305.71392357 1038.17472076 C249.89462878 1038.12219467 194.07528751 1037.86612989 138.25645846 1037.64374399 C127.40473188 1037.60053775 116.55300221 1037.55818192 105.70127016 1037.51637125 C104.92607384 1037.51338425 104.15087752 1037.51039726 103.3521904 1037.50731975 C99.45944734 1037.49232443 95.56670424 1037.47734263 91.6739611 1037.46236753 C59.8812166 1037.34004598 28.08848169 1037.21538851 -3.70424742 1037.08912516 C-0.95502447 1034.17409699 1.82147234 1032.69275634 5.42075258 1030.90162516 C17.69196317 1024.37061419 25.46844759 1015.63682832 30.73325258 1002.71412516 C35.26828656 986.87177566 32.08419611 971.41675603 26.67075258 956.33912516 C26.04093618 954.50644987 25.41435751 952.67265946 24.79062563 950.83790445 C23.40770969 946.78545376 22.00663848 942.73988576 20.59311587 938.69801188 C18.15155701 931.70039894 15.78026244 924.67985882 13.41684633 917.65553141 C12.54939492 915.07895843 11.681658 912.50248167 10.81381899 909.92603922 C10.59366877 909.2723555 10.37351855 908.61867178 10.1466971 907.94517946 C7.82327262 901.04967241 5.48358147 894.15970772 3.14318758 887.26994562 C-3.08971797 868.92077612 -9.28829368 850.56009441 -15.48131651 832.19743204 C-18.34368808 823.71047109 -21.20744311 815.22397696 -24.07143492 806.73756266 C-24.35170215 805.90708477 -24.63196939 805.07660688 -24.92072958 804.220963 C-32.90787186 780.55468161 -40.9104486 756.89363666 -48.92853636 733.23782206 C-51.44185441 725.82116789 -53.94933343 718.40257301 -56.45180601 710.9822526 C-58.02047837 706.33278764 -59.59245486 701.68444416 -61.16512388 697.03632975 C-61.88605805 694.90308517 -62.60555704 692.76935489 -63.32344908 690.63508463 C-64.30196975 687.72650981 -65.28571722 684.8197513 -66.27065367 681.91334391 C-66.5467497 681.08826838 -66.82284574 680.26319284 -67.10730833 679.41311502 C-68.59721597 675.03506418 -70.24095974 670.77556753 -72.06362242 666.52467203 C-75.27104111 658.92397157 -77.80996434 651.12652874 -80.38784117 643.29615641 C-80.9296324 641.66259944 -81.47188513 640.02919546 -82.01456541 638.39593363 C-83.44166188 634.09762314 -84.86363357 629.7976366 -86.28414243 625.49714518 C-88.7919424 617.90735131 -91.30813008 610.32033324 -93.82534117 602.73365641 C-94.2476945 601.46011301 -94.2476945 601.46011301 -94.67858022 600.16084146 C-99.15281457 586.67574461 -103.7114666 573.22111005 -108.31622785 559.78008699 C-116.00827769 537.32510809 -123.56960732 514.82627439 -131.13521665 492.328444 C-132.66283351 487.78646391 -134.19130992 483.24477328 -135.71981233 478.70309114 C-137.57040534 473.20427014 -139.4205655 467.70530353 -141.27065367 462.20631266 C-141.61259826 461.19003668 -141.95454286 460.1737607 -142.30684942 459.12668848 C-143.89059847 454.41922263 -145.47328471 449.71140749 -147.05315489 445.00263834 C-148.06279886 441.99391421 -149.07764762 438.98709623 -150.10021299 435.98274088 C-152.22830991 429.69156504 -154.22269913 423.38662686 -156.05825132 417.00562906 C-158.74696977 407.69262958 -161.87035588 398.53985861 -165.02464002 389.37588739 C-166.80531872 384.20184655 -168.57337662 379.02348519 -170.34389585 373.84596109 C-170.70778473 372.78300884 -171.0716736 371.72005659 -171.44658941 370.62489367 C-175.16348926 359.7626388 -178.83273633 348.88452974 -182.49330992 338.00318766 C-183.13675563 336.09146915 -183.78021882 334.17975652 -184.42369932 332.26804972 C-185.72512334 328.40109787 -187.02614017 324.53400931 -188.32686704 320.66682291 C-191.81502115 310.29642558 -195.30649211 299.92714459 -198.79799742 289.55787516 C-199.14365877 288.53124891 -199.48932012 287.50462267 -199.84545606 286.44688654 C-205.82223005 268.69657902 -211.81831606 250.95289068 -217.82924742 233.21412516 C-225.78804087 209.72557217 -233.71883833 186.22766941 -241.63781065 162.7256608 C-243.56330544 157.01123894 -245.48930429 151.29698705 -247.41542906 145.5827775 C-248.05141037 143.69598757 -248.68739161 141.80919761 -249.32337278 139.92240763 C-250.27296599 137.10522442 -251.2225635 134.28804265 -252.17217535 131.47086573 C-255.84473691 120.57549585 -259.51589908 109.67965698 -263.18470091 98.7830205 C-265.42502997 92.12959569 -267.66738988 85.47685747 -269.91130918 78.82464266 C-271.20447825 74.99074393 -272.49671745 71.15653833 -273.78646177 67.321486 C-274.97546484 63.78601155 -276.16706611 60.25142347 -277.36062902 56.7174859 C-277.99042486 54.85060624 -278.61750823 52.98281216 -279.24445432 51.11497355 C-285.2933454 33.23075139 -290.4923619 18.0332574 -307.70424742 8.08912516 C-310.79215514 6.62741581 -313.88315206 5.31260488 -317.07534117 4.09693766 C-319.37768776 3.21431444 -321.51159714 2.20834204 -323.70424742 1.08912516 C-284.59587994 0.96086927 -245.48750998 0.83339816 -206.37913664 0.70694289 C-201.73547238 0.69192714 -197.09180813 0.67690506 -192.4481439 0.66187906 C-191.06175622 0.65739314 -191.06175622 0.65739314 -189.6473607 0.65281659 C-174.78858264 0.60472317 -159.92980629 0.55611992 -145.07103053 0.50731975 C-129.76253699 0.45705425 -114.45404166 0.40735634 -99.14554465 0.35815811 C-90.57316975 0.33059277 -82.00079583 0.30277364 -73.42842382 0.27432108 C-70.94442419 0.26610824 -68.46042454 0.25790389 -65.97642487 0.24970478 C-64.34749595 0.24431464 -62.71856711 0.2388991 -61.08963836 0.23345762 C-52.56138747 0.20501211 -44.03314317 0.17868185 -35.50486559 0.15965891 C-33.32239196 0.15467763 -31.13991842 0.14966178 -28.95744497 0.14460522 C-27.54170124 0.14132806 -26.12595739 0.13810258 -24.71021342 0.13493055 C-16.47318924 0.11580883 -8.23672018 0.07575968 0 0 Z " fill="#32AFE9" transform="translate(753.7042474150658,80.91087484359741)"/>
<path d="M0 0 C1.1087172 -0.00199105 2.21743439 -0.0039821 3.35974908 -0.00603348 C4.57763737 -0.00312064 5.79552567 -0.0002078 7.05031967 0.00279331 C8.34413992 0.00193889 9.63796016 0.00108446 10.97098708 0.00020415 C14.56485816 -0.00203483 18.15869952 0.00197233 21.75256681 0.00698221 C25.62710666 0.01129506 29.5016448 0.00983969 33.37618637 0.00907993 C40.08997877 0.00855523 46.80376146 0.01169645 53.51755142 0.01731777 C63.22460039 0.02544 72.93164465 0.02804874 82.63869664 0.02930576 C98.38721476 0.03149514 114.1357277 0.03815215 129.88424301 0.04760838 C145.18372191 0.05678544 160.48319941 0.06386484 175.78268051 0.06811619 C177.19694007 0.06851027 177.19694007 0.06851027 178.63977054 0.06891232 C183.36965451 0.07021734 188.09953849 0.07148106 192.82942247 0.07272422 C232.0771918 0.08309328 271.32495534 0.10070851 310.57271957 0.12304783 C310.88391393 1.04521312 311.19510828 1.96737841 311.51573277 2.9174881 C314.51118804 11.79391526 317.5067298 20.67031322 320.50234729 29.54668564 C322.04082429 34.1053851 323.57927519 38.66409337 325.11765671 43.22282505 C333.32567891 67.54581801 341.5387672 91.86709101 349.76021957 116.18554783 C350.01399722 116.93620384 350.26777487 117.68685985 350.52924275 118.46026301 C353.22927977 126.44670928 355.92948476 134.43309874 358.62984848 142.41943455 C361.58361797 151.15522158 364.53722599 159.8910632 367.49068832 168.62695408 C367.85895296 169.71621693 367.85895296 169.71621693 368.23465729 170.82748508 C370.95096065 178.86189726 373.66696656 186.89640985 376.38228989 194.9311533 C376.62570555 195.65142326 376.86912121 196.37169323 377.1199131 197.11378956 C378.11238154 200.05052552 379.10484882 202.98726187 380.09727478 205.92401218 C383.41542854 215.74285069 386.73549109 225.56104146 390.05726624 235.37865543 C392.49061435 242.57068232 394.92284259 249.76308734 397.35433197 256.95574284 C398.82186808 261.29672452 400.28996861 265.6375135 401.75942612 269.97784519 C403.13016489 274.02661909 404.49943988 278.07588502 405.86759377 282.1255331 C406.37190534 283.61738648 406.87676345 285.10905523 407.38220024 286.60052776 C408.07403571 288.6422946 408.76392499 290.68470896 409.45333481 292.72729588 C409.84061249 293.87215961 410.22789017 295.01702335 410.62690353 296.19657993 C414.59921731 308.48739362 414.19741407 323.1406747 409.18600082 335.04101658 C401.28125372 350.14233731 391.85814139 355.97082286 376.57271957 364.12304783 C464.35271957 364.45304783 552.13271957 364.78304783 642.57271957 365.12304783 C642.57271957 365.45304783 642.57271957 365.78304783 642.57271957 366.12304783 C605.06833626 366.16885631 567.56395717 366.20408279 530.05955152 366.22517849 C525.62871947 366.22767981 521.19788748 366.23026846 516.76705551 366.23291111 C515.44394414 366.23369804 515.44394414 366.23369804 514.09410325 366.23450087 C499.82411104 366.24319618 485.55413499 366.25896134 471.28415236 366.27735342 C456.63461466 366.2960768 441.98508541 366.30716971 427.33553624 366.31122482 C418.30082647 366.31396482 409.26616239 366.32260935 400.23146668 366.33888076 C394.03046538 366.34947774 387.82948759 366.35264232 381.6284779 366.35005058 C378.05438969 366.34877351 374.48038116 366.35068865 370.90630722 366.36145878 C367.02186866 366.37307798 363.13753244 366.36900234 359.25307846 366.36355686 C358.13631186 366.36938254 357.01954526 366.37520823 355.86893725 366.38121045 C345.67072756 366.34271649 335.71744791 365.47501706 326.57271957 360.68554783 C325.89684799 360.33846775 325.22097641 359.99138767 324.52462387 359.63379002 C318.12764804 356.17629226 313.13499187 351.70239596 308.03805161 346.57617283 C305.53833857 344.0972838 302.92276903 341.74564735 300.32271957 339.37304783 C294.05109666 333.59244502 287.83404984 327.75376828 281.61568832 321.91601658 C277.7534988 318.29075984 273.88351579 314.67393216 270.01021957 311.06054783 C269.39549789 310.48707615 268.78077621 309.91360447 268.14742661 309.32275486 C266.90886348 308.16743463 265.67025681 307.01216109 264.43160629 305.85693455 C261.31125655 302.94641131 258.19204856 300.03466496 255.07271957 297.12304783 C253.82272499 295.95637536 252.57272499 294.7897087 251.32271957 293.62304783 C243.82271957 286.62304783 236.32271957 279.62304783 228.82271957 272.62304783 C228.20405014 272.0456284 227.58538071 271.46820896 226.94796371 270.87329197 C225.69712827 269.70583469 224.44631449 268.5383542 223.19552231 267.37085056 C220.08348136 264.46609008 216.97107305 261.5617253 213.85787582 258.65820408 C206.74758774 252.02591856 199.64729645 245.3831508 192.55562973 238.73095798 C186.19104062 232.76212666 179.81262717 226.80818922 173.43160629 220.85693455 C170.31125655 217.94641131 167.19204856 215.03466496 164.07271957 212.12304783 C162.82272499 210.95637536 161.57272499 209.7897087 160.32271957 208.62304783 C147.82271957 196.95638116 135.32271957 185.2897145 122.82271957 173.62304783 C122.20388901 173.04554783 121.58505844 172.46804783 120.94747543 171.87304783 C119.69798605 170.70670587 118.4487996 169.54003931 117.19991684 168.37304783 C114.06951227 165.44867145 110.93398889 162.53018606 107.78756332 159.62304783 C100.83240153 153.18474492 94.03069914 146.63437124 87.36520004 139.89624119 C83.80242245 136.30837361 80.15525771 132.89679032 76.29537582 129.62695408 C73.85431928 127.49587297 71.61957834 125.17982693 69.35006332 122.86914158 C67.50678384 121.0582714 65.59449158 119.36983429 63.63521957 117.68554783 C60.10637194 114.64625132 56.8426693 111.41287936 53.57662582 108.09570408 C50.99025806 105.54966953 48.25736677 103.20283226 45.50631332 100.83789158 C43.00840402 98.62257403 40.69246969 96.25406612 38.35396957 93.87304783 C36.48882283 92.04062296 34.55344212 90.32951648 32.57271957 88.62304783 C29.3431559 85.84065451 26.33949304 82.91285354 23.35396957 79.87304783 C21.48882283 78.04062296 19.55344212 76.32951648 17.57271957 74.62304783 C14.3431559 71.84065451 11.33949304 68.91285354 8.35396957 65.87304783 C6.48882283 64.04062296 4.55344212 62.32951648 2.57271957 60.62304783 C-0.6562504 57.841166 -3.66053308 54.91576493 -6.64212418 51.87304783 C-8.52251011 50.02969357 -10.48379164 48.32832862 -12.48978043 46.62304783 C-18.63817798 41.29841616 -23.83406017 36.29343072 -24.79837418 27.88867283 C-24.94422934 20.16692889 -24.73316102 14.06422232 -19.42728043 8.12304783 C-13.14834206 2.75704073 -8.26786688 -0.0032757 0 0 Z " fill="#0074CD" transform="translate(374.4272804260254,752.8769521713257)"/>
<path d="M0 0 C1.50552594 0.09461937 3.01487592 0.13369606 4.52336407 0.1386652 C5.45592044 0.14413964 6.3884768 0.14961409 7.34929246 0.15525442 C8.88867304 0.15672158 8.88867304 0.15672158 10.45915222 0.15821838 C12.09233453 0.16562535 12.09233453 0.16562535 13.75851041 0.17318195 C17.42518699 0.1886015 21.09184601 0.19692964 24.75854492 0.20532227 C27.37964534 0.21489729 30.00074421 0.22490714 32.62184143 0.23532104 C38.27432205 0.25708987 43.92680503 0.27523287 49.57930565 0.29092598 C57.75191154 0.31362091 65.92449149 0.34176426 74.09707538 0.37124526 C87.35596524 0.41892579 100.6148657 0.46218873 113.8737793 0.50268555 C126.75497259 0.54203812 139.63615645 0.58346378 152.51733398 0.62768555 C153.31108664 0.63040982 154.10483929 0.63313409 154.92264505 0.63594092 C158.90459622 0.64962036 162.88654725 0.66334064 166.86849821 0.67708123 C199.91231271 0.79105325 232.95614677 0.89786101 266 1 C266 1.33 266 1.66 266 2 C173.93 2 81.86 2 -13 2 C-8.38425583 -0.30787208 -4.99387758 -1.66462586 0 0 Z " fill="#1477C2" transform="translate(751,1117)"/>
<path d="M0 0 C1.73277162 0.11553891 3.46943121 0.17645135 5.20581055 0.20532227 C6.26668381 0.22526749 7.32755707 0.24521271 8.420578 0.26576233 C10.13631767 0.29083107 10.13631767 0.29083107 11.88671875 0.31640625 C13.05886429 0.33718735 14.23100983 0.35796844 15.43867493 0.37937927 C19.18822286 0.44483818 22.93784163 0.50374296 26.6875 0.5625 C29.22722091 0.60568868 31.76693462 0.64930308 34.30664062 0.69335938 C40.53768522 0.80051586 46.76880051 0.9022892 53 1 C53 1.33 53 1.66 53 2 C31.22 2 9.44 2 -13 2 C-8.38425583 -0.30787208 -4.99387758 -1.66462586 0 0 Z " fill="#1581CF" transform="translate(751,1117)"/>
<path d="M0 0 C2.05893621 0.22325814 4.12233653 0.40705759 6.1875 0.5625 C7.27417969 0.64628906 8.36085938 0.73007813 9.48046875 0.81640625 C10.72763672 0.90728516 10.72763672 0.90728516 12 1 C12 1.33 12 1.66 12 2 C3.75 2 -4.5 2 -13 2 C-8.38425583 -0.30787208 -4.99387758 -1.66462586 0 0 Z " fill="#1888D9" transform="translate(751,1117)"/>
</svg>
