<?xml version="1.0" encoding="UTF-8"?>
<svg version="1.1" xmlns="http://www.w3.org/2000/svg" width="1200" height="449">
<path d="M0 0 C1.56495712 0.00081573 1.56495712 0.00081573 3.16152954 0.00164795 C18.47246163 0.03838701 33.16809471 0.4933561 48.0625 4.375 C48.91618164 4.58930664 49.76986328 4.80361328 50.64941406 5.02441406 C82.29669118 13.16431649 111.04520113 29.32491463 135.0625 51.375 C135.5776416 51.84486328 136.0927832 52.31472656 136.62353516 52.79882812 C154.79791318 69.57876751 166.91399461 90.56189317 178.0625 112.375 C178.61091553 113.39678345 178.61091553 113.39678345 179.17041016 114.43920898 C180.4644025 117.24710862 180.45135151 119.32899654 180.0625 122.375 C176.63072904 125.89839318 172.11747277 126.67750613 167.50878906 127.85522461 C166.21510155 128.19737251 166.21510155 128.19737251 164.89527893 128.5464325 C162.04176766 129.29877235 159.18505697 130.03810982 156.328125 130.77734375 C154.33172816 131.30079208 152.33553559 131.82502001 150.33953857 132.34999084 C145.07389364 133.73255039 139.80541639 135.10400592 134.53631592 136.47332764 C129.22939758 137.85474001 123.92543005 139.24738519 118.62109375 140.63867188 C98.62689441 145.87688595 98.62689441 145.87688595 89.97424316 148.10250854 C86.77352386 148.9263756 83.58074581 149.77397344 80.39196777 150.64285278 C78.96283362 151.02314255 77.53367649 151.40334602 76.10449219 151.78344727 C74.88155457 152.11635269 73.65861694 152.44925812 72.39862061 152.79225159 C67.8407865 153.58840703 64.54202725 153.3234149 60.625 150.8125 C57.86388869 148.18607705 55.41638878 145.39555662 52.92578125 142.515625 C38.13928531 125.52820409 15.8220197 115.21274206 -6.6875 113.46484375 C-7.80125 113.42037109 -7.80125 113.42037109 -8.9375 113.375 C-9.906875 113.33503906 -10.87625 113.29507813 -11.875 113.25390625 C-44.35565266 112.59023907 -74.23267618 127.92323614 -97.46826172 149.88061523 C-121.06283849 172.90417488 -133.66631132 203.63979236 -134.29345703 236.51000977 C-134.44095532 264.02600499 -127.15234531 287.94594646 -107.9375 308.375 C-91.42077239 323.9754043 -70.72174618 333.25613077 -47.9375 334.375 C-46.926875 334.42785156 -45.91625 334.48070312 -44.875 334.53515625 C-18.78410281 335.2297056 7.49240696 326.91710412 27.0625 309.375 C28.32126953 308.29412109 28.32126953 308.29412109 29.60546875 307.19140625 C37.93014626 299.92463027 44.6192693 292.18325514 50.81640625 283.06640625 C51.32272583 282.32555786 51.82904541 281.58470947 52.35070801 280.82141113 C53.59006025 279.00735042 54.82725906 277.19186155 56.0625 275.375 C55.46412229 275.37261165 54.86574457 275.37022329 54.2492342 275.36776257 C39.68499315 275.30860975 25.12090093 275.23305789 10.55684376 275.13928509 C3.51374114 275.09433194 -3.52931096 275.05491624 -10.57250977 275.02856445 C-17.36773748 275.00312485 -24.16273119 274.96221693 -30.95781898 274.91181374 C-33.55215985 274.89511009 -36.14653959 274.88361767 -38.74092674 274.87738609 C-42.3707378 274.86778334 -45.99996954 274.83976852 -49.62963867 274.80737305 C-50.7056987 274.80880814 -51.78175873 274.81024323 -52.89042664 274.8117218 C-62.0255649 274.69618229 -62.0255649 274.69618229 -65.9375 271.375 C-68.50205048 267.65409291 -68.10346116 264.56075721 -67.55712891 260.234375 C-66.37735618 254.79012826 -63.98125876 249.89686593 -61.625 244.875 C-60.80855784 243.09216194 -59.99211708 241.30932324 -59.17576599 239.52644348 C-58.33175117 237.69011051 -57.48066701 235.85719918 -56.62792969 234.02490234 C-54.98724005 230.49381203 -53.38560898 226.94581731 -51.7890625 223.39453125 C-47.45534601 213.79617226 -43.08421032 204.22874672 -38 195 C-37.65880127 194.37005127 -37.31760254 193.74010254 -36.96606445 193.09106445 C-34.21598579 188.27555437 -31.24124615 185.14291538 -25.9375 183.375 C-23.37885428 183.26964698 -20.84674911 183.2201718 -18.28767395 183.21678162 C-17.10776596 183.20937465 -17.10776596 183.20937465 -15.90402144 183.20181805 C-13.25999107 183.18642163 -10.61598502 183.17807662 -7.97192383 183.16967773 C-6.07987757 183.1601009 -4.18783347 183.15009093 -2.29579163 183.13967896 C2.84848104 183.11260279 7.99276291 183.0916079 13.13706756 183.07167697 C18.51028486 183.04983414 23.88347372 183.02243713 29.25666809 182.99562073 C39.43510163 182.94567079 49.61355095 182.90074049 59.79201537 182.85759836 C71.37834036 182.80824565 82.9646368 182.75332024 94.5509342 182.69791877 C118.38809618 182.58406339 142.22528553 182.4772321 166.0625 182.375 C166.28455109 181.78172409 166.50660217 181.18844818 166.73538208 180.57719421 C167.7600849 177.84566707 168.79016201 175.11619582 169.8203125 172.38671875 C170.16940674 171.45371948 170.51850098 170.52072021 170.87817383 169.55944824 C174.05127083 161.17183402 177.83083852 153.2705207 182.0625 145.375 C182.43600586 144.66279297 182.80951172 143.95058594 183.19433594 143.21679688 C189.29250607 131.60945556 196.20928044 120.87006225 204.0625 110.375 C204.5280127 109.75109375 204.99352539 109.1271875 205.47314453 108.484375 C211.33927322 100.68231965 217.62463603 93.39767728 224.3359375 86.3125 C226.20281345 84.33534168 227.96679791 82.30859248 229.6875 80.203125 C231.60586313 77.91875838 233.4139495 76.02797178 235.6875 74.125 C237.97632056 72.18374108 240.21384213 70.23127576 242.390625 68.1640625 C289.00533063 23.98018508 358.36852812 4.7781818 421.375 5.0625 C422.22245789 5.06432281 423.06991577 5.06614563 423.9430542 5.06802368 C437.18387012 5.11578234 450.05469372 5.71799735 463.0625 8.375 C463.91295898 8.54128906 464.76341797 8.70757812 465.63964844 8.87890625 C492.60235879 14.2774467 518.86932338 24.97275431 541.0625 41.375 C542.63644531 42.52548828 542.63644531 42.52548828 544.2421875 43.69921875 C551.39914572 49.01886514 558.09286226 54.75368645 564.53564453 60.91552734 C565.56565775 61.90008427 566.60062459 62.8794814 567.64013672 63.85400391 C601.87653826 96.02935117 620.59637215 141.7135909 622.28686523 188.43652344 C622.42627667 193.87436289 622.44963769 199.31061411 622.4375 204.75 C622.43618576 206.19616196 622.43618576 206.19616196 622.43484497 207.67153931 C622.27810547 260.14672971 604.75527455 310.56263198 570.0625 350.375 C569.16452074 351.45264253 568.2688265 352.53219181 567.375 353.61328125 C556.73586163 366.39318898 545.20780816 378.161114 532.0625 388.375 C530.99700585 389.24010765 529.93328882 390.10740736 528.87109375 390.9765625 C485.14952403 426.49284268 432.40927619 443.21549015 377.0625 448.375 C375.82733643 448.49190186 374.59217285 448.60880371 373.31958008 448.72924805 C365.65901484 449.37321019 358.2811288 449.34356905 350.625 448.6875 C349.5124585 448.59573486 348.39991699 448.50396973 347.25366211 448.40942383 C315.79737037 445.59520716 285.90818181 437.36710913 258.0625 422.375 C256.31259766 421.45460938 256.31259766 421.45460938 254.52734375 420.515625 C210.678769 396.58923247 180.02476163 356.10662122 164.0625 309.375 C163.46824219 310.48875 162.87398437 311.6025 162.26171875 312.75 C151.07800371 333.44958289 137.53848257 351.8353448 121.40673828 368.92919922 C119.48971229 370.99106408 117.6537435 373.1204992 115.8125 375.25 C112.80355343 378.65518645 109.62973781 381.660192 106.15625 384.5859375 C104.7290919 385.80541215 103.33378521 387.06292852 101.96875 388.3515625 C88.621644 400.92161096 73.1247993 410.67167043 57.0625 419.375 C56.38509766 419.74463867 55.70769531 420.11427734 55.00976562 420.49511719 C34.24077476 431.70623912 11.49509657 439.10935614 -11.625 443.625 C-12.39457031 443.77614258 -13.16414062 443.92728516 -13.95703125 444.08300781 C-29.03823097 446.83918416 -44.12891016 447.78817144 -59.4375 447.75 C-60.30601593 447.74912384 -61.17453186 447.74824768 -62.06936646 447.74734497 C-119.23593427 447.55831377 -169.86625815 424.70590193 -209.94140625 384.3828125 C-246.93446828 346.20283953 -260.72844328 294.24066263 -260.1484375 242.23046875 C-259.28777698 190.4064104 -238.28320394 142.83981228 -206.9375 102.375 C-206.50840332 101.81989746 -206.07930664 101.26479492 -205.63720703 100.69287109 C-192.96573151 84.44044191 -178.19999825 69.02868544 -161.9375 56.375 C-160.49890625 55.21097656 -160.49890625 55.21097656 -159.03125 54.0234375 C-138.05052853 37.33422724 -114.13051744 24.43479666 -88.9375 15.375 C-88.09703125 15.07110352 -87.2565625 14.76720703 -86.390625 14.45410156 C-70.61844503 8.85617253 -54.40994483 5.25112299 -37.9375 2.375 C-36.81255127 2.17777344 -35.68760254 1.98054687 -34.52856445 1.77734375 C-23.04906745 0.00212295 -11.59308607 -0.02267742 0 0 Z M325.0625 143.375 C324.093125 144.17035156 323.12375 144.96570313 322.125 145.78515625 C298.01028834 166.60293467 282.98202935 198.26147113 279.3125 229.75 C279.20962946 231.29048635 279.12578696 232.83238037 279.0625 234.375 C279.0109375 235.16003906 278.959375 235.94507813 278.90625 236.75390625 C278.02628966 260.76949039 286.88262055 285.61659573 303.0625 303.375 C303.94679688 304.35210937 304.83109375 305.32921875 305.7421875 306.3359375 C322.94750079 324.72952725 347.9868953 335.68191278 373.14453125 336.59765625 C407.58248826 337.37499596 439.03609154 323.77896264 464.01513672 300.26098633 C465.36709189 298.9686158 466.71495158 297.67196477 468.0625 296.375 C468.69414063 295.80652344 469.32578125 295.23804688 469.9765625 294.65234375 C488.82868862 277.18508946 499.01428234 251.23830698 503.0625 226.375 C503.19398438 225.65441406 503.32546875 224.93382812 503.4609375 224.19140625 C507.51399849 198.72284732 499.68295632 171.76561475 484.75 151.0625 C468.00008816 129.8804809 445.77562277 117.17931791 419.0625 113.375 C385.68595276 110.63435099 350.70962772 121.77166657 325.0625 143.375 Z " fill="#00ACD7" transform="translate(577.9375,-0.37499999999999994)"/>
<path d="M0 0 C0.94935665 -0.00260775 1.8987133 -0.00521549 2.87683833 -0.00790226 C3.92186467 -0.00567154 4.96689101 -0.00344082 6.04358482 -0.0011425 C7.15208522 -0.00270249 8.26058562 -0.00426248 9.40267694 -0.00586975 C13.13613213 -0.00987475 16.86954702 -0.00669202 20.60300255 -0.00355339 C23.27174055 -0.00490764 25.94047572 -0.00665136 28.60921288 -0.00886345 C35.11630372 -0.01331629 41.62338304 -0.01234692 48.13047434 -0.00945081 C53.41643701 -0.00719526 58.70239644 -0.00688491 63.98835945 -0.00797462 C65.11550101 -0.00820447 65.11550101 -0.00820447 66.2654131 -0.00843897 C67.79174977 -0.00875868 69.31808643 -0.00908289 70.8444231 -0.00941156 C85.16508915 -0.01226483 99.48574881 -0.00898152 113.80641381 -0.00361119 C126.10661456 0.00085853 138.40680588 0.00007923 150.70700645 -0.00452995 C164.97845057 -0.00987528 179.24988908 -0.01199207 193.52133405 -0.00891769 C195.04154165 -0.00859913 196.56174926 -0.00828476 198.08195686 -0.00797462 C198.83000507 -0.00782035 199.57805328 -0.00766607 200.34876961 -0.00750712 C205.63225211 -0.00664198 210.91573107 -0.00810475 216.19921303 -0.01045418 C222.6322779 -0.01325183 229.06533056 -0.01251458 235.49839403 -0.00717343 C238.78352909 -0.00453622 242.06863942 -0.00406548 245.35377502 -0.00682259 C248.90689317 -0.00953091 252.45995288 -0.00615691 256.01306725 -0.0011425 C257.06255503 -0.00337322 258.11204282 -0.00560395 259.19333327 -0.00790226 C260.609545 -0.00399064 260.609545 -0.00399064 262.05436707 0 C262.8755948 0.00016235 263.69682254 0.0003247 264.54293597 0.00049198 C266.40134239 0.12584114 266.40134239 0.12584114 267.40134239 1.12584114 C267.01204343 8.13322244 265.50917251 17.01801102 260.40134239 22.12584114 C258.01566219 22.38755417 258.01566219 22.38755417 254.95226097 22.40431404 C253.2083827 22.42105974 253.2083827 22.42105974 251.42927456 22.43814373 C250.14267657 22.4403036 248.85607859 22.44246347 247.53049278 22.4446888 C246.16091863 22.45399244 244.7913501 22.46415929 243.42178822 22.4751215 C239.65853332 22.50265663 235.89531644 22.51766826 232.13198662 22.53054547 C228.108083 22.54634764 224.08425199 22.57326823 220.06040001 22.59872627 C212.24122941 22.64630258 204.42204377 22.68285431 196.6027981 22.71551234 C190.29244747 22.74212044 183.98213366 22.77326536 177.67181969 22.80745125 C111.24836079 23.16633627 44.82559529 23.25001441 -21.59865761 23.12584114 C-21.83810373 18.79022137 -21.1142879 17.00196335 -18.23928261 13.66490364 C-17.55092323 12.9030677 -17.55092323 12.9030677 -16.84865761 12.12584114 C-15.95765749 11.1053352 -15.06702828 10.08450529 -14.17678261 9.06334114 C-12.90061073 7.60927864 -12.90061073 7.60927864 -11.59865761 6.12584114 C-10.53904823 4.73365364 -10.53904823 4.73365364 -9.45803261 3.31334114 C-6.65948005 0.02092637 -4.08767858 0.00080779 0 0 Z " fill="#00ABD7" transform="translate(21.598657608032227,166.87415885925293)"/>
<path d="M0 0 C1.28932885 -0.00233999 1.28932885 -0.00233999 2.60470474 -0.00472724 C5.48973221 -0.00872125 8.37470722 -0.00555378 11.25973511 -0.00241089 C13.3260196 -0.00376562 15.39230385 -0.00554595 17.45858765 -0.00772095 C23.07401447 -0.01228618 28.68942295 -0.01050959 34.3048501 -0.00734186 C40.17359117 -0.00481426 46.04233065 -0.00715686 51.91107178 -0.00872803 C61.76525149 -0.01054826 71.61942372 -0.00814693 81.47360229 -0.00338745 C92.87983968 0.0020579 104.2860592 0.00028994 115.69229615 -0.00521386 C125.47406961 -0.00974554 135.25583767 -0.01039535 145.03761184 -0.00777519 C150.88497261 -0.00621311 156.73232497 -0.00601683 162.57968521 -0.00931168 C168.07402639 -0.01219129 173.56834443 -0.01021302 179.06268311 -0.00441742 C181.08399288 -0.00309044 183.1053046 -0.00348289 185.12661362 -0.00568008 C187.8757769 -0.00839392 190.62486501 -0.00500759 193.37402344 0 C194.18256842 -0.00223072 194.9911134 -0.00446144 195.82415974 -0.00675976 C201.33172759 0.0128334 201.33172759 0.0128334 203.56002808 1.12698364 C203.05153432 6.19236379 200.58682584 9.64296498 197.81002808 13.75198364 C197.16420776 14.75358521 197.16420776 14.75358521 196.50534058 15.77542114 C195.85952026 16.74221802 195.85952026 16.74221802 195.20065308 17.72854614 C194.81425659 18.30942993 194.42786011 18.89031372 194.02975464 19.48880005 C191.26574057 22.56961971 188.57985887 24.01385186 184.45859814 24.47103119 C183.29084001 24.45671303 182.12308187 24.44239487 180.91993713 24.42764282 C180.26780813 24.42400884 179.61567913 24.42037485 178.94378865 24.41663074 C176.76950976 24.40122129 174.59611022 24.36450876 172.42208862 24.32815552 C170.85958774 24.31335475 169.29707173 24.30008383 167.73454571 24.2882309 C164.3976653 24.26098066 161.06100708 24.22560506 157.72426987 24.18444824 C152.63746216 24.12408067 147.55085651 24.09566097 142.46374512 24.07644653 C140.74732366 24.06978478 139.03090221 24.0631192 137.31448078 24.05644989 C136.02238396 24.05145871 136.02238396 24.05145871 134.70418417 24.04636669 C130.1863631 24.02724165 125.66858624 24.0009026 121.15080261 23.97451782 C120.22735454 23.9691515 119.30390646 23.96378518 118.35247511 23.95825624 C116.45631779 23.94721523 114.56016062 23.93614771 112.66400361 23.92505455 C107.71273845 23.89630537 102.76146685 23.86870866 97.81019592 23.8409729 C88.49695754 23.78863596 79.1837251 23.7353108 69.87049454 23.68160105 C59.24111081 23.62035133 48.61172069 23.56024826 37.98232996 23.50022602 C16.17488882 23.37705847 -5.63254419 23.2525013 -27.43997192 23.12698364 C-26.66996301 18.28656068 -24.65078279 15.32307755 -21.62747192 11.56448364 C-21.18854614 11.0005188 -20.74962036 10.43655396 -20.2973938 9.85549927 C-13.70455546 1.47975368 -10.53389797 -0.02922357 0 0 Z " fill="#00ABD6" transform="translate(115.43997192382813,112.87301635742188)"/>
<path d="M0 0 C1.5416407 -0.00845947 1.5416407 -0.00845947 3.11442566 -0.01708984 C4.24128784 -0.01304138 5.36815002 -0.00899292 6.52915955 -0.00482178 C8.3099012 -0.01007874 8.3099012 -0.01007874 10.12661743 -0.01544189 C13.38272346 -0.0227424 16.63866723 -0.02102251 19.89477086 -0.01468372 C23.299795 -0.00962421 26.70480821 -0.01431493 30.10983276 -0.01745605 C35.82710215 -0.02109535 41.54431988 -0.01629706 47.26158142 -0.0067749 C53.87643986 0.00411481 60.49117506 0.00058023 67.10603052 -0.01042771 C72.7816699 -0.01949545 78.45727212 -0.02078856 84.13291639 -0.01555037 C87.52444348 -0.0124285 90.91591259 -0.01202736 94.30743599 -0.01862335 C98.08585683 -0.02367857 101.8640379 -0.01599255 105.6424408 -0.00482178 C106.77132721 -0.00887024 107.90021362 -0.0129187 109.06330872 -0.01708984 C110.60071968 -0.00863037 110.60071968 -0.00863037 112.16918945 0 C113.06311936 0.00075405 113.95704927 0.0015081 114.87806797 0.002285 C117.02110291 0.25396729 117.02110291 0.25396729 119.02110291 2.25396729 C119.3181548 5.22964197 119.01686653 8.21053372 118.83360291 11.19146729 C118.80202087 12.01582275 118.77043884 12.84017822 118.73789978 13.68951416 C118.69342712 14.48293213 118.64895447 15.2763501 118.60313416 16.09381104 C118.54476379 17.18230347 118.54476379 17.18230347 118.48521423 18.29278564 C117.88171913 20.8429572 117.0857793 21.64868641 115.02110291 23.25396729 C112.62728786 23.62590408 112.62728786 23.62590408 109.73849487 23.62145996 C108.09588432 23.62981369 108.09588432 23.62981369 106.42008972 23.63833618 C105.21842163 23.6291214 104.01675354 23.61990662 102.77867126 23.6104126 C101.5134816 23.61245697 100.24829193 23.61450134 98.94476318 23.61660767 C95.47372828 23.6217447 92.00298949 23.60820104 88.53200221 23.59108067 C84.90277114 23.5760553 81.27354408 23.57721896 77.64428711 23.57641602 C71.55035845 23.57272276 65.45654239 23.55775177 59.36265564 23.53521729 C51.53496099 23.5063308 43.70735698 23.49599295 35.87961483 23.49153519 C29.15633191 23.4875581 22.43306877 23.47505655 15.7098 23.46118832 C13.54531286 23.45708635 11.38082642 23.45416225 9.2163372 23.45139313 C5.18890223 23.44559892 1.16154804 23.43092652 -2.86585999 23.4151001 C-4.06955231 23.41398224 -5.27324463 23.41286438 -6.51341248 23.41171265 C-7.60566635 23.4060025 -8.69792023 23.40029236 -9.82327271 23.39440918 C-10.77619737 23.39143452 -11.72912203 23.38845985 -12.71092319 23.38539505 C-14.97889709 23.25396729 -14.97889709 23.25396729 -16.97889709 22.25396729 C-16.4633586 17.16107186 -14.67086617 13.34665331 -12.10389709 9.00396729 C-11.576026 8.06810791 -11.576026 8.06810791 -11.03749084 7.11334229 C-8.05435392 1.96770833 -5.96695793 0.00503115 0 0 Z " fill="#00ACD6" transform="translate(157.97889709472656,220.74603271484375)"/>
</svg>
