<?xml version="1.0" encoding="UTF-8"?>
<svg version="1.1" xmlns="http://www.w3.org/2000/svg" width="620" height="620">
<path d="M0 0 C6.56739113 5.73735711 12.49932519 12.22451554 18.14453125 18.859375 C20.61857727 21.71364283 23.18270778 24.47966565 25.75 27.25 C26.26626953 27.80743896 26.78253906 28.36487793 27.31445312 28.93920898 C28.36368372 30.07201959 29.4130003 31.20475056 30.46240234 32.33740234 C32.83708074 34.90513176 35.20048145 37.4831282 37.5625 40.0625 C38.01206055 40.55331055 38.46162109 41.04412109 38.92480469 41.54980469 C39.83030793 42.53851282 40.73574434 43.52728217 41.64111328 44.51611328 C43.92642496 47.01164407 46.2132958 49.50574527 48.5 52 C49.41667404 52.99999325 50.3333407 53.99999324 51.25 55 C51.70375 55.495 52.1575 55.99 52.625 56.5 C120.6875 130.75 120.6875 130.75 221.75 241 C222.20391113 241.49508057 222.65782227 241.99016113 223.12548828 242.50024414 C224.0409108 243.49907904 224.95595076 244.49826468 225.87060547 245.49780273 C228.17827766 248.01866144 230.49253769 250.53283855 232.8203125 253.03515625 C255.5392115 277.49923858 255.5392115 277.49923858 255.2109375 294.66796875 C253.87906132 309.3925999 246.18335203 318.14880119 236.45556641 328.45166016 C234.11186835 330.94473849 231.80752935 333.47349293 229.5 336 C228.58615162 336.99759202 227.67208864 337.9949875 226.7578125 338.9921875 C226.30438477 339.48686523 225.85095703 339.98154297 225.38378906 340.49121094 C223.98321151 342.01830502 222.58157234 343.5444185 221.1796875 345.0703125 C216.99212221 349.63029978 212.81442771 354.19735903 208.6875 358.8125 C204.247016 363.76320119 199.70300191 368.61362232 195.1574707 373.4675293 C191.14160638 377.7613607 187.18418833 382.10138934 183.265625 386.484375 C180.0699394 390.03268798 176.82624735 393.53577726 173.58374023 397.04125977 C170.19297728 400.70710918 166.81040923 404.38021607 163.4375 408.0625 C162.76291748 408.79895752 162.76291748 408.79895752 162.07470703 409.55029297 C161.16937398 410.53884515 160.26410037 411.52745177 159.35888672 412.51611328 C157.07357504 415.01164407 154.7867042 417.50574527 152.5 420 C151.58332596 420.99999325 150.6666593 421.99999324 149.75 423 C100.25 477 100.25 477 98.87451172 478.50048828 C97.95941367 479.49880661 97.04437445 480.49717886 96.12939453 481.49560547 C93.81421148 484.0217842 91.4979599 486.54696832 89.1796875 489.0703125 C84.95233249 493.67349765 80.73473917 498.28413776 76.5625 502.9375 C71.61380335 508.4497493 66.58472523 513.88620022 61.55273438 519.32226562 C59.01233522 522.0671749 56.47465958 524.81459647 53.9375 527.5625 C53.44088867 528.10036133 52.94427734 528.63822266 52.43261719 529.19238281 C47.72913902 534.28909756 43.04229544 539.40096073 38.35888672 544.51611328 C36.53220583 546.51082518 34.70450295 548.50459907 32.87670898 550.49829102 C31.96076778 551.49739624 31.04491455 552.49658211 30.12915039 553.49584961 C27.81406372 556.02196074 25.49788212 558.54705298 23.1796875 561.0703125 C22.24472842 562.08848359 21.30983215 563.10671236 20.375 564.125 C19.69099121 564.86979614 19.69099121 564.86979614 18.99316406 565.62963867 C16.05381021 568.83539125 13.14620164 572.0677724 10.25 575.3125 C8.83450914 576.87606526 7.41793351 578.43864955 6 580 C5.11054687 581.00740234 5.11054687 581.00740234 4.203125 582.03515625 C-0.69525684 587.32675682 -5.69621088 590.50035166 -12.9609375 591.34375 C-23.36862268 591.65833998 -29.32280703 589.23248289 -36.8671875 582.1484375 C-39.31306964 579.68463681 -41.59661883 577.1392591 -43.83203125 574.484375 C-45.68367174 572.36249509 -47.57621907 570.31025986 -49.51171875 568.265625 C-50.14505127 567.5960376 -50.77838379 566.9264502 -51.4309082 566.23657227 C-52.71357087 564.88464614 -53.99979938 563.53609307 -55.28979492 562.19116211 C-55.88252197 561.5647583 -56.47524902 560.93835449 -57.0859375 560.29296875 C-57.6226709 559.7311792 -58.1594043 559.16938965 -58.71240234 558.59057617 C-60 557 -60 557 -61 554 C-65.59755463 557.67052727 -69.56863312 561.52833898 -73.25 566.125 C-91.41273764 588.75808443 -91.41273764 588.75808443 -103.16015625 590.45703125 C-111.91159945 590.89716231 -118.34574941 588.86687737 -125.078125 583.2734375 C-129.66101855 578.88901572 -133.55335273 573.92745858 -137.515625 568.98828125 C-140.23705157 565.71486721 -143.08956859 562.60436848 -146 559.5 C-150.43857481 554.76157789 -154.59144051 549.8787843 -158.65625 544.8125 C-161.33208171 541.60150195 -164.14358276 538.54970863 -167 535.5 C-171.43832674 530.76133536 -175.5914225 525.87880674 -179.65625 520.8125 C-182.33208171 517.60150195 -185.14358276 514.54970863 -188 511.5 C-192.43832674 506.76133536 -196.5914225 501.87880674 -200.65625 496.8125 C-203.33208171 493.60150195 -206.14358276 490.54970863 -209 487.5 C-213.43832674 482.76133536 -217.5914225 477.87880674 -221.65625 472.8125 C-224.81803441 469.01835871 -228.18545364 465.43716235 -231.56079102 461.83374023 C-234.65780084 458.508452 -237.59621684 455.11280061 -240.4375 451.5625 C-243.94643322 447.187478 -247.65846079 443.07980841 -251.5 439 C-256.1466361 434.06482764 -260.51926249 429.00524355 -264.7578125 423.7109375 C-267.2390655 420.71095565 -269.84864307 417.84846349 -272.5 415 C-275.95164054 411.29140465 -279.26522294 407.51493923 -282.4375 403.5625 C-286.28110057 398.78378372 -290.36960164 394.30842313 -294.55834961 389.83618164 C-298.4599667 385.64670474 -302.07324797 381.27827064 -305.65625 376.8125 C-308.33208171 373.60150195 -311.14358276 370.54970863 -314 367.5 C-318.43832674 362.76133536 -322.5914225 357.87880674 -326.65625 352.8125 C-329.33208492 349.60149809 -332.14362569 346.54975367 -335 343.5 C-339.49683799 338.69757226 -343.73216024 333.76111059 -347.83984375 328.6171875 C-350.04312634 325.94774928 -352.37254022 323.4520456 -354.75 320.9375 C-364.64340526 310.11010194 -365.69787908 299.37686747 -365.16601562 285.33984375 C-364.23975706 272.2850466 -352.80730611 262.80762787 -344.4609375 253.7421875 C-342.08960105 251.09984117 -339.84747003 248.39305833 -337.625 245.625 C-333.75845816 240.8293951 -329.65148017 236.33121333 -325.4440918 231.83862305 C-321.52107276 227.62588877 -317.88096281 223.23595547 -314.27734375 218.74609375 C-311.33856664 215.20242256 -308.21637652 211.84397498 -305.08129883 208.47583008 C-302.13053653 205.28658081 -299.33999777 202.01626095 -296.625 198.625 C-292.57462766 193.58744014 -288.22907464 188.89856289 -283.80175781 184.19628906 C-279.74157304 179.86051539 -275.96472116 175.35922917 -272.25 170.72265625 C-268.83731503 166.59307044 -265.18979586 162.69116515 -261.55078125 158.76171875 C-257.3378403 154.20038758 -253.28567106 149.50977708 -249.2578125 144.78515625 C-248.23455265 143.58578591 -247.21110963 142.38657183 -246.1875 141.1875 C-245.67026367 140.58139893 -245.15302734 139.97529785 -244.62011719 139.35083008 C-241.4151062 135.60948459 -238.14798497 131.9389307 -234.8125 128.3125 C-231.62263156 124.83863691 -228.57951106 121.30089975 -225.625 117.625 C-221.75781137 112.8285929 -217.65019284 108.3295854 -213.44189453 103.83642578 C-210.32460664 100.48918215 -207.36433518 97.07004094 -204.5 93.5 C-200.68005989 88.73891522 -196.61061181 84.28726975 -192.44140625 79.8359375 C-189.32431446 76.48883131 -186.36418887 73.06985859 -183.5 69.5 C-179.68005989 64.73891522 -175.61061181 60.28726975 -171.44140625 55.8359375 C-168.32431446 52.48883131 -165.36418887 49.06985859 -162.5 45.5 C-158.67877028 40.73730789 -154.60803168 36.28401882 -150.43701172 31.83154297 C-147.36006386 28.52804738 -144.4433493 25.15579447 -141.625 21.625 C-121.8874409 -2.73351214 -121.8874409 -2.73351214 -109.84765625 -4.44921875 C-102.16917994 -4.85240595 -96.13650476 -3.72464727 -90 1 C-82.59945162 7.85642475 -76.29478253 15.78199118 -70.01171875 23.64453125 C-67.27680529 26.84676973 -64.30409303 29.39890548 -61 32 C-60.74605469 31.41734375 -60.49210937 30.8346875 -60.23046875 30.234375 C-58.86679667 27.75811967 -57.35774797 26.19479374 -55.3125 24.25 C-52.65833638 21.6624283 -50.10852948 19.05699071 -47.6875 16.25 C-46.45880519 14.83292406 -45.22957356 13.41631353 -44 12 C-43.58314941 11.51917969 -43.16629883 11.03835937 -42.73681641 10.54296875 C-41.33473085 8.93602818 -39.91858926 7.34237793 -38.5 5.75 C-38.06131592 5.24243164 -37.62263184 4.73486328 -37.1706543 4.21191406 C-27.40356246 -6.66397183 -11.93303183 -8.79090214 0 0 Z " fill="#DB79BF" transform="translate(365,17)"/>
<path d="M0 0 C8.760572 6.74498175 15.78556582 15.96279944 22.59765625 24.59765625 C24.60899395 27.13584282 24.60899395 27.13584282 27.41015625 29.49609375 C29.59765625 32 29.59765625 32 29.66796875 34.54296875 C28.37327706 37.51508945 26.84807919 39.11020111 24.47265625 41.3125 C21.65984424 44.0020589 18.93403364 46.66218742 16.41015625 49.625 C12.95858341 53.64781217 9.34783097 57.50942147 5.72265625 61.375 C1.04688002 66.36347373 -3.57945383 71.38698979 -8.13671875 76.484375 C-10.82613641 79.47055599 -13.54869331 82.42469812 -16.27734375 85.375 C-16.78450928 85.92341553 -17.2916748 86.47183105 -17.81420898 87.03686523 C-18.32153564 87.58544189 -18.8288623 88.13401855 -19.3515625 88.69921875 C-26.35480651 96.27215786 -33.33416294 103.86728937 -40.203125 111.5625 C-41.72281698 113.24684778 -43.26338537 114.91250937 -44.8203125 116.5625 C-51.37564905 123.57767256 -55.50605582 128.56840808 -55.96484375 138.375 C-55.39833167 151.72631162 -46.89649059 159.20915982 -38.06933594 168.27246094 C-35.91394038 170.50614269 -33.83988875 172.80558126 -31.77734375 175.125 C-27.89094748 179.47200619 -23.94539094 183.76084317 -19.98608398 188.04125977 C-15.22841875 193.18490577 -10.49274577 198.3484194 -5.76123047 203.51611328 C-3.47591879 206.01164407 -1.18904795 208.50574527 1.09765625 211 C2.01433029 211.99999325 2.93099695 212.99999324 3.84765625 214 C4.30140625 214.495 4.75515625 214.99 5.22265625 215.5 C17.59765625 229 29.97265625 242.5 42.34765625 256 C42.80188965 256.4952417 43.25612305 256.9904834 43.72412109 257.50073242 C44.63705649 258.49723727 45.54884854 259.49479083 46.45947266 260.4934082 C48.79977105 263.05685133 51.15941898 265.59695454 53.55859375 268.10546875 C61.11581006 276.04637648 66.75402718 282.03038271 67.22265625 293.4375 C66.79478657 304.41948857 62.67123265 310.48956017 54.84375 317.8671875 C52.85803413 319.75275422 51.06351999 321.6716189 49.28515625 323.75 C46.21518022 327.32336702 43.04861537 330.79444214 39.84765625 334.25 C39.33170898 334.8071167 38.81576172 335.3642334 38.28417969 335.93823242 C37.23461063 337.07135656 36.18496859 338.20441311 35.13525391 339.33740234 C32.76057551 341.90513176 30.3971748 344.4831282 28.03515625 347.0625 C27.5855957 347.55331055 27.13603516 348.04412109 26.67285156 348.54980469 C25.76734832 349.53851282 24.86191191 350.52728217 23.95654297 351.51611328 C21.67123129 354.01164407 19.38436045 356.50574527 17.09765625 359 C16.18098221 359.99999325 15.26431555 360.99999324 14.34765625 362 C-24.15234375 404 -24.15234375 404 -25.52783203 405.50024414 C-26.44325455 406.49907904 -27.35829451 407.49826468 -28.27294922 408.49780273 C-30.58062141 411.01866144 -32.89488144 413.53283855 -35.22265625 416.03515625 C-50.32368837 431.15304012 -50.32368837 431.15304012 -55.8984375 450.86328125 C-54.49420962 459.74198192 -50.49517509 465.78224513 -44.21484375 472 C-42.85998022 473.39124879 -41.50581041 474.78317349 -40.15234375 476.17578125 C-39.50265625 476.83529785 -38.85296875 477.49481445 -38.18359375 478.17431641 C-35.95964601 480.45374091 -33.82848748 482.80576543 -31.71484375 485.1875 C-28.35491074 488.95087713 -24.95298282 492.67157708 -21.52734375 496.375 C-16.25580311 502.07400799 -11.00369978 507.79036268 -5.76123047 513.51611328 C-3.47591879 516.01164407 -1.18904795 518.50574527 1.09765625 521 C2.01433029 521.99999325 2.93099695 522.99999324 3.84765625 524 C4.30140625 524.495 4.75515625 524.99 5.22265625 525.5 C6.59765625 527 7.97265625 528.5 9.34765625 530 C9.80221191 530.49556396 10.25676758 530.99112793 10.72509766 531.50170898 C11.63489692 532.49484987 12.54344179 533.48914145 13.45068359 534.48461914 C15.8380264 537.10073823 18.2485102 539.68913177 20.69921875 542.24609375 C21.20517578 542.78041016 21.71113281 543.31472656 22.23242188 543.86523438 C23.64203898 545.35244509 25.06098242 546.83079991 26.48046875 548.30859375 C29.83638932 552.57469942 29.83638932 552.57469942 29.59765625 556 C27.89718608 558.56822767 25.78131313 560.65226663 23.59765625 562.8125 C22.38598489 564.06048583 21.17504113 565.30917852 19.96484375 566.55859375 C19.37928711 567.15397949 18.79373047 567.74936523 18.19042969 568.36279297 C16.29734676 570.30868723 14.49600453 572.31971386 12.72265625 574.375 C12.19542969 574.97699219 11.66820312 575.57898438 11.125 576.19921875 C10.0471867 577.46999096 9.00025246 578.76726801 7.9765625 580.08203125 C2.91308865 586.38506221 -2.4499074 590.25774295 -10.58203125 591.4765625 C-19.3307314 591.86768086 -25.74598151 589.86863179 -32.48046875 584.2734375 C-37.0633623 579.88901572 -40.95569648 574.92745858 -44.91796875 569.98828125 C-47.63939532 566.71486721 -50.49191234 563.60436848 -53.40234375 560.5 C-57.84091856 555.76157789 -61.99378426 550.8787843 -66.05859375 545.8125 C-68.73442546 542.60150195 -71.54592651 539.54970863 -74.40234375 536.5 C-78.84067049 531.76133536 -82.99376625 526.87880674 -87.05859375 521.8125 C-89.73442546 518.60150195 -92.54592651 515.54970863 -95.40234375 512.5 C-99.84067049 507.76133536 -103.99376625 502.87880674 -108.05859375 497.8125 C-110.73442546 494.60150195 -113.54592651 491.54970863 -116.40234375 488.5 C-120.84067049 483.76133536 -124.99376625 478.87880674 -129.05859375 473.8125 C-132.22037816 470.01835871 -135.58779739 466.43716235 -138.96313477 462.83374023 C-142.06014459 459.508452 -144.99856059 456.11280061 -147.83984375 452.5625 C-151.34877697 448.187478 -155.06080454 444.07980841 -158.90234375 440 C-163.54897985 435.06482764 -167.92160624 430.00524355 -172.16015625 424.7109375 C-174.64140925 421.71095565 -177.25098682 418.84846349 -179.90234375 416 C-183.35398429 412.29140465 -186.66756669 408.51493923 -189.83984375 404.5625 C-193.68344432 399.78378372 -197.77194539 395.30842313 -201.96069336 390.83618164 C-205.86231045 386.64670474 -209.47559172 382.27827064 -213.05859375 377.8125 C-215.73442546 374.60150195 -218.54592651 371.54970863 -221.40234375 368.5 C-225.84067049 363.76133536 -229.99376625 358.87880674 -234.05859375 353.8125 C-236.73442867 350.60149809 -239.54596944 347.54975367 -242.40234375 344.5 C-246.89918174 339.69757226 -251.13450399 334.76111059 -255.2421875 329.6171875 C-257.44547009 326.94774928 -259.77488397 324.4520456 -262.15234375 321.9375 C-272.04574901 311.11010194 -273.10022283 300.37686747 -272.56835938 286.33984375 C-271.64210081 273.2850466 -260.20964986 263.80762787 -251.86328125 254.7421875 C-249.4919448 252.09984117 -247.24981378 249.39305833 -245.02734375 246.625 C-241.16080191 241.8293951 -237.05382392 237.33121333 -232.84643555 232.83862305 C-228.92341651 228.62588877 -225.28330656 224.23595547 -221.6796875 219.74609375 C-218.74091039 216.20242256 -215.61872027 212.84397498 -212.48364258 209.47583008 C-209.53288028 206.28658081 -206.74234152 203.01626095 -204.02734375 199.625 C-199.97697141 194.58744014 -195.63141839 189.89856289 -191.20410156 185.19628906 C-187.14391679 180.86051539 -183.36706491 176.35922917 -179.65234375 171.72265625 C-176.23965878 167.59307044 -172.59213961 163.69116515 -168.953125 159.76171875 C-164.74018405 155.20038758 -160.68801481 150.50977708 -156.66015625 145.78515625 C-155.6368964 144.58578591 -154.61345338 143.38657183 -153.58984375 142.1875 C-153.07260742 141.58139893 -152.55537109 140.97529785 -152.02246094 140.35083008 C-148.81744995 136.60948459 -145.55032872 132.9389307 -142.21484375 129.3125 C-139.02497531 125.83863691 -135.98185481 122.30089975 -133.02734375 118.625 C-129.16015512 113.8285929 -125.05253659 109.3295854 -120.84423828 104.83642578 C-117.72695039 101.48918215 -114.76667893 98.07004094 -111.90234375 94.5 C-108.08240364 89.73891522 -104.01295556 85.28726975 -99.84375 80.8359375 C-96.72665821 77.48883131 -93.76653262 74.06985859 -90.90234375 70.5 C-87.08240364 65.73891522 -83.01295556 61.28726975 -78.84375 56.8359375 C-75.72665821 53.48883131 -72.76653262 50.06985859 -69.90234375 46.5 C-66.08111403 41.73730789 -62.01037543 37.28401882 -57.83935547 32.83154297 C-54.76240761 29.52804738 -51.84569305 26.15579447 -49.02734375 22.625 C-20.96932548 -12.0019554 -20.96932548 -12.0019554 0 0 Z " fill="#902C87" transform="translate(272.40234375,16)"/>
<path d="M0 0 C0.78761719 -0.01417969 1.57523438 -0.02835938 2.38671875 -0.04296875 C9.79764141 0.54080219 14.51930249 1.51021311 19.62353516 7.18798828 C20.18089355 7.84782715 20.73825195 8.50766602 21.3125 9.1875 C22.21621338 10.20626221 22.21621338 10.20626221 23.13818359 11.24560547 C24.33716585 12.60004109 25.5280349 13.9617099 26.70996094 15.33105469 C28.74843624 17.69250597 30.84100202 20.00254041 32.9375 22.3125 C33.63359375 23.09109375 34.3296875 23.8696875 35.046875 24.671875 C38.2425606 28.22018798 41.48625265 31.72327726 44.72875977 35.22875977 C49.486425 40.37240577 54.22209798 45.5359194 58.95361328 50.70361328 C61.23892496 53.19914407 63.5257958 55.69324527 65.8125 58.1875 C66.72917404 59.18749325 67.6458407 60.18749324 68.5625 61.1875 C69.01625 61.6825 69.47 62.1775 69.9375 62.6875 C78.64583333 72.1875 87.35416667 81.6875 96.0625 91.1875 C96.7433667 91.93012085 96.7433667 91.93012085 97.43798828 92.68774414 C98.3534108 93.68657904 99.26845076 94.68576468 100.18310547 95.68530273 C102.49077766 98.20616144 104.80503769 100.72033855 107.1328125 103.22265625 C129.8517115 127.68673858 129.8517115 127.68673858 129.5234375 144.85546875 C128.19156132 159.5800999 120.49585203 168.33630119 110.76806641 178.63916016 C108.42436835 181.13223849 106.12002935 183.66099293 103.8125 186.1875 C102.89865162 187.18509202 101.98458864 188.1824875 101.0703125 189.1796875 C100.61688477 189.67436523 100.16345703 190.16904297 99.69628906 190.67871094 C98.29571151 192.20580502 96.89407234 193.7319185 95.4921875 195.2578125 C91.30462221 199.81779978 87.12692771 204.38485903 83 209 C78.559516 213.95070119 74.01550191 218.80112232 69.4699707 223.6550293 C65.45410638 227.9488607 61.49668833 232.28888934 57.578125 236.671875 C54.3824394 240.22018798 51.13874735 243.72327726 47.89624023 247.22875977 C43.60178985 251.87161113 39.32433202 256.52964299 35.0546875 261.1953125 C33.14816639 263.27803195 31.23594635 265.35534742 29.3203125 267.4296875 C28.82732666 267.96456787 28.33434082 268.49944824 27.82641602 269.05053711 C26.45951042 270.53332502 25.0911316 272.01475445 23.72265625 273.49609375 C21.2971583 276.12219206 21.2971583 276.12219206 19.3046875 278.890625 C15.18233759 283.64345196 9.05062475 284.86933762 2.984375 285.57421875 C-3.8796877 285.80568133 -8.99989744 285.11562839 -14.6875 281.1875 C-15.533125 280.61 -16.37875 280.0325 -17.25 279.4375 C-19.30256472 277.54282487 -21.06312458 275.65092706 -22.87890625 273.5390625 C-26.50661375 269.36505049 -30.26241293 265.32925654 -34.0625 261.3125 C-38.92495426 256.15019539 -43.73712167 250.95402854 -48.4609375 245.6640625 C-52.63654126 241.01961902 -56.89222003 236.44846117 -61.13476562 231.86523438 C-69.79798614 222.50459736 -78.42949919 213.11530911 -87.04199219 203.70800781 C-91.74314734 198.57362885 -96.44713511 193.44202702 -101.17163086 188.32910156 C-102.18006364 187.23702522 -103.18739363 186.14392949 -104.19360352 185.04980469 C-106.66722543 182.36183706 -109.15481188 179.69072497 -111.6796875 177.05078125 C-122.98133086 165.14973669 -128.36542852 155.10170158 -128 138.6171875 C-127.35357008 125.8124881 -118.71145453 117.00187379 -110.25 108.1875 C-105.86422699 103.59074302 -101.57208604 98.94717699 -97.40893555 94.14746094 C-94.6161082 90.96765411 -91.71384864 87.89301964 -88.8125 84.8125 C-84.11328703 79.80087398 -79.46300941 74.75384447 -74.8828125 69.6328125 C-69.02095417 63.10341158 -63.05653742 56.66579241 -57.09887695 50.22387695 C-53.10182139 45.90161998 -49.11728119 41.57126314 -45.1875 37.1875 C-41.25923461 32.80542778 -37.28310977 28.46998571 -33.27612305 24.15991211 C-30.74688266 21.43633098 -28.24338991 18.69721169 -25.79296875 15.90234375 C-18.53972492 7.67848036 -11.5924034 0.09333658 0 0 Z " fill="#E696C9" transform="translate(490.6875,166.8125)"/>
<path d="M0 0 C-2 2 -2 2 -4.36816406 3.38476562 C-6.9926257 4.99547418 -8.93359546 6.67528928 -11.109375 8.84375 C-11.85944824 9.58987549 -12.60952148 10.33600098 -13.38232422 11.10473633 C-14.16365723 11.89517334 -14.94499023 12.68561035 -15.75 13.5 C-16.55840332 14.31299561 -17.36680664 15.12599121 -18.19970703 15.96362305 C-23.06061992 20.89866216 -27.59403764 25.8939458 -31.859375 31.3515625 C-34.48132902 34.59551291 -37.28118868 37.63825878 -40.125 40.6875 C-40.64497559 41.24550293 -41.16495117 41.80350586 -41.70068359 42.37841797 C-42.69657868 43.44697356 -43.6925081 44.51549717 -44.68847656 45.58398438 C-48.50180782 49.70113279 -52.12922472 53.97990611 -55.7734375 58.24609375 C-56.8072254 59.4557858 -57.84108147 60.6654196 -58.875 61.875 C-59.39489502 62.48375977 -59.91479004 63.09251953 -60.45043945 63.71972656 C-63.47931717 67.25681159 -66.55171743 70.74418008 -69.6875 74.1875 C-72.6791816 77.47942205 -75.52524423 80.84591307 -78.3125 84.3125 C-82.26718771 89.20382427 -86.45346907 93.82065048 -90.74243164 98.41601562 C-94.2677814 102.19378936 -97.68225365 106.03713631 -101 110 C-101.66 109.34 -102.32 108.68 -103 108 C-102.59910156 107.62230469 -102.19820312 107.24460937 -101.78515625 106.85546875 C-98.19531511 103.37959082 -94.94030826 99.77334497 -91.8125 95.875 C-88.3623864 91.58439876 -84.76227908 87.51333509 -81 83.5 C-77.35095166 79.60440207 -73.84300105 75.66663899 -70.5 71.5 C-66.68005989 66.73891522 -62.61061181 62.28726975 -58.44140625 57.8359375 C-55.32431446 54.48883131 -52.36418887 51.06985859 -49.5 47.5 C-45.67877028 42.73730789 -41.60803168 38.28401882 -37.43701172 33.83154297 C-34.36006386 30.52804738 -31.4433493 27.15579447 -28.625 23.625 C-24.83554629 18.91941462 -20.84682547 14.43725241 -16.75 10 C-16.15912598 9.35240723 -15.56825195 8.70481445 -14.95947266 8.03759766 C-10.53834354 3.296115 -6.90097006 -0.59151172 0 0 Z " fill="#A23094" transform="translate(252,15)"/>
<path d="M0 0 C4.00153279 1.5783308 6.23177204 4.19824785 9.0625 7.375 C10.04280998 8.46628847 11.02328328 9.55743027 12.00390625 10.6484375 C12.50164551 11.2062793 12.99938477 11.76412109 13.51220703 12.33886719 C15.81843074 14.9137845 18.15980151 17.45599539 20.5 20 C21.41685856 20.99982407 22.3335247 21.99982461 23.25 23 C23.70375 23.495 24.1575 23.99 24.625 24.5 C33.33333333 34 42.04166667 43.5 50.75 53 C51.2042334 53.4954834 51.6584668 53.9909668 52.12646484 54.50146484 C53.03842579 55.49641974 53.95021112 56.49153563 54.86181641 57.48681641 C57.22402876 60.06538881 59.58969428 62.64066534 61.9609375 65.2109375 C62.44884766 65.74074219 62.93675781 66.27054687 63.43945312 66.81640625 C64.78943793 68.28210404 66.14076745 69.74656294 67.4921875 71.2109375 C70.07500442 74.08341613 72.54558472 77.01775348 75 80 C74.67 80.66 74.34 81.32 74 82 C68.5047776 76.5942116 63.06923375 71.20752055 58.05859375 65.34375 C55.1920754 62.08016174 52.22011729 58.91920697 49.25 55.75 C41.648828 47.63450082 34.10213204 39.47444169 26.6875 31.1875 C22.82759789 26.88329262 18.88934514 22.65697505 14.9375 18.4375 C6.73498197 9.66296859 6.73498197 9.66296859 3.125 5.6875 C2.50882812 5.01074219 1.89265625 4.33398438 1.2578125 3.63671875 C0 2 0 2 0 0 Z " fill="#E484C7" transform="translate(426,85)"/>
<path d="M0 0 C4.99166134 4.14066564 9.49550323 8.47225542 13.875 13.25 C14.48649902 13.91112793 15.09799805 14.57225586 15.72802734 15.25341797 C19.76774422 19.63004446 23.76465344 24.04416792 27.734375 28.484375 C30.9300606 32.03268798 34.17375265 35.53577726 37.41625977 39.04125977 C42.173925 44.18490577 46.90959798 49.3484194 51.64111328 54.51611328 C53.4684122 56.51150006 55.29662175 58.50604994 57.12548828 60.5 C58.03502123 61.49257024 58.94356597 62.48604699 59.85107422 63.48046875 C62.25719632 66.1144663 64.68226903 68.72732108 67.13671875 71.31640625 C67.6471875 71.85974609 68.15765625 72.40308594 68.68359375 72.96289062 C69.66584825 74.00765223 70.65390992 75.04699265 71.6484375 76.08007812 C75 79.66261341 75 79.66261341 75 83 C69.50339281 77.59284935 64.06757059 72.20419741 59.0546875 66.33984375 C56.20916884 63.09941471 53.26061247 59.95949935 50.3125 56.8125 C49.70664062 56.16547119 49.10078125 55.51844238 48.4765625 54.85180664 C47.24775092 53.53952309 46.01890979 52.22726722 44.79003906 50.91503906 C37.87767219 43.51997554 31.03350976 36.06541685 24.27734375 28.52734375 C21.7018987 25.66917403 19.10274213 22.83326815 16.5 20 C15.57412235 18.98967167 14.64834029 17.97925572 13.72265625 16.96875 C11.9435362 15.02673937 10.15898008 13.09024888 8.37109375 11.15625 C7.56800781 10.2796875 6.76492187 9.403125 5.9375 8.5 C5.22464844 7.7265625 4.51179687 6.953125 3.77734375 6.15625 C2.12515402 4.15183521 1.10933886 2.32775305 0 0 Z " fill="#782873" transform="translate(226,487)"/>
<path d="M0 0 C0.89203125 0.00902344 1.7840625 0.01804687 2.703125 0.02734375 C3.37859375 0.03894531 4.0540625 0.05054688 4.75 0.0625 C4.75 0.7225 4.75 1.3825 4.75 2.0625 C3.88117188 2.16046875 3.01234375 2.2584375 2.1171875 2.359375 C0.38855469 2.58367188 0.38855469 2.58367188 -1.375 2.8125 C-3.08042969 3.02132813 -3.08042969 3.02132813 -4.8203125 3.234375 C-13.12890064 5.2405489 -18.37456748 11.91793724 -24.1875 17.8125 C-25.48977539 19.11574219 -25.48977539 19.11574219 -26.81835938 20.4453125 C-31.29118251 24.948563 -35.61850688 29.50204072 -39.68188477 34.37988281 C-41.38731546 36.20984208 -43.21210947 37.61918946 -45.25 39.0625 C-43.89827153 34.97870659 -42.18063758 32.68566481 -39.0625 29.75 C-36.21508227 26.99764709 -33.45814095 24.25219772 -30.875 21.25 C-27.85086857 17.75466669 -24.82478305 14.2633921 -21.75 10.8125 C-21.31123535 10.30485107 -20.8724707 9.79720215 -20.42041016 9.27416992 C-14.68116166 2.88326219 -8.5438896 -0.1124196 0 0 Z " fill="#E689C9" transform="translate(348.25,11.9375)"/>
<path d="M0 0 C1.485 0.495 1.485 0.495 3 1 C2.18208984 1.89138672 2.18208984 1.89138672 1.34765625 2.80078125 C-3.54637767 8.18003563 -8.23471975 13.67312242 -12.796875 19.3359375 C-14.8922537 21.86971104 -17.07671458 24.27782015 -19.3125 26.6875 C-25.0912766 33.15559389 -27.5087364 39.52334375 -29 48 C-29.66 47.34 -30.32 46.68 -31 46 C-30.76509011 34.72432536 -23.39603527 26.7415248 -16 19 C-10.45158864 12.84435907 -5.21773676 6.43639183 0 0 Z " fill="#9C2E8F" transform="translate(31,258)"/>
<path d="M0 0 C0.99 0.33 1.98 0.66 3 1 C2.38253906 1.66644531 1.76507813 2.33289063 1.12890625 3.01953125 C-3.17815516 7.7068203 -7.38837878 12.40818201 -11.375 17.375 C-16.60936507 23.86861986 -22.29202913 29.92501916 -28 36 C-28.66 35.67 -29.32 35.34 -30 35 C-25.04816137 28.73023016 -19.91376227 22.74897879 -14.4375 16.9375 C-9.31687285 11.50269654 -4.53188421 5.942108 0 0 Z " fill="#A03092" transform="translate(94,186)"/>
<path d="M0 0 C5.22787856 2.24051938 8.56645515 5.16343124 12.4375 9.1875 C13.00734619 9.76975342 13.57719238 10.35200684 14.16430664 10.9519043 C20.63445606 17.60488369 26.54553884 24.48762858 32 32 C23.60858097 28.31596238 17.09623056 19.18210796 11.51171875 12.1171875 C7.90133531 7.62123831 4.04440175 4.77826188 -1 2 C-0.67 1.34 -0.34 0.68 0 0 Z " fill="#E688C9" transform="translate(359,14)"/>
<path d="M0 0 C0.99 0.33 1.98 0.66 3 1 C2.03900391 2.051875 2.03900391 2.051875 1.05859375 3.125 C-4.0222842 8.69806434 -9.05587033 14.30500951 -14 20 C-15.3119514 21.50047985 -16.62444233 23.00048814 -17.9375 24.5 C-18.52402344 25.1703125 -19.11054687 25.840625 -19.71484375 26.53125 C-20.13894531 27.0159375 -20.56304687 27.500625 -21 28 C-21.66 27.67 -22.32 27.34 -23 27 C-16.41305651 19.24732596 -9.78238178 11.56920269 -2.86328125 4.109375 C-0.96305296 2.14024526 -0.96305296 2.14024526 0 0 Z " fill="#A02F92" transform="translate(136,138)"/>
<path d="M0 0 C5.24114404 4.27848493 9.66680395 8.81251589 14 14 C14.51175781 14.6084375 15.02351563 15.216875 15.55078125 15.84375 C16.70654005 17.22414924 17.85428435 18.61125376 19 20 C18.67 20.66 18.34 21.32 18 22 C0.93573693 5.24474773 0.93573693 5.24474773 0 0 Z " fill="#E587C8" transform="translate(392,47)"/>
<path d="M0 0 C0 4.05686056 -1.5873349 5.34937252 -4.21484375 8.28125 C-8.05731085 11.98078069 -11.54574132 14 -17 14 C-17 13.34 -17 12.68 -17 12 C-16.1646875 11.70609375 -16.1646875 11.70609375 -15.3125 11.40625 C-8.77706862 8.84506743 -4.63963836 5.20853135 0 0 Z " fill="#82297E" transform="translate(281,592)"/>
<path d="M0 0 C1.16471809 1.16471809 2.32799387 2.33091045 3.484375 3.50390625 C4.53197685 4.53800807 5.60723483 5.54456151 6.703125 6.52734375 C8.375 8.0625 8.375 8.0625 11 11 C10.6640625 13.18359375 10.6640625 13.18359375 10 15 C8.53998252 13.23055495 7.08204407 11.45939429 5.625 9.6875 C4.81289063 8.70136719 4.00078125 7.71523438 3.1640625 6.69921875 C1 4 1 4 -1 1 C-0.67 0.67 -0.34 0.34 0 0 Z " fill="#A33395" transform="translate(291,37)"/>
<path d="M0 0 C4.07239298 0.52684804 6.21598637 1.63049149 9.25 4.375 C9.93578125 4.98085938 10.6215625 5.58671875 11.328125 6.2109375 C13 8 13 8 14 11 C11.10056397 9.66817114 8.83122901 8.1670537 6.4375 6.0625 C5.85871094 5.55847656 5.27992188 5.05445313 4.68359375 4.53515625 C3.07330641 3.0668432 1.52674321 1.55458655 0 0 Z " fill="#A33195" transform="translate(268,16)"/>
<path d="M0 0 C3.7952131 1.49097658 5.61042731 3.75700849 8 7 C7.01 7 6.02 7 5 7 C0 1.53488372 0 1.53488372 0 0 Z " fill="#83297E" transform="translate(233,591)"/>
<path d="M0 0 C4.20626034 1.50223584 5.73900021 4.28550034 8 8 C4.63820226 6.55922954 2.40843732 4.75249979 0 2 C0 1.34 0 0.68 0 0 Z " fill="#E586C8" transform="translate(416,74)"/>
</svg>
