<?xml version="1.0" encoding="UTF-8"?>
<svg version="1.1" xmlns="http://www.w3.org/2000/svg" width="69" height="66">
<path d="M0 0 C2.125 4.625 2.125 4.625 1 8 C-1.21701147 9.58965571 -3.57862473 10.72327486 -6 12 C-3.702779 13.74271938 -1.40133271 15.39911152 1 17 C1.1875 20.625 1.1875 20.625 1 24 C-3.0129291 25.16325706 -4.69233088 25.13603274 -8.578125 23.41796875 C-9.81224571 22.69147248 -11.03617754 21.94742487 -12.25 21.1875 C-12.87390625 20.81818359 -13.4978125 20.44886719 -14.140625 20.06835938 C-16.67699889 18.54598841 -18.90175308 17.09824692 -21 15 C-21.4375 12.625 -21.4375 12.625 -21 10 C-19.125 8.0625 -19.125 8.0625 -16 6 C-15.22527344 5.47792969 -14.45054688 4.95585937 -13.65234375 4.41796875 C-5.45518833 -0.86134553 -5.45518833 -0.86134553 0 0 Z " fill="#27B5E8" transform="translate(64,21)"/>
<path d="M0 0 C1.9375 0.75 1.9375 0.75 3.9375 2.75 C4.1328125 4.9140625 4.1328125 4.9140625 4.0625 7.375 C4.04445313 8.19226562 4.02640625 9.00953125 4.0078125 9.8515625 C3.97300781 10.79128906 3.97300781 10.79128906 3.9375 11.75 C4.989375 11.069375 6.04125 10.38875 7.125 9.6875 C9.7878738 8.15351185 10.65368926 7.7314906 13.8125 7.9375 C15.9375 8.75 15.9375 8.75 16.9375 9.75 C17.3984375 12.54296875 17.3984375 12.54296875 16.9375 15.75 C14.76458691 17.55259973 13.00366933 18.75693792 10.5625 20.0625 C9.95921875 20.40861328 9.3559375 20.75472656 8.734375 21.11132812 C4.03691261 23.78888169 1.38298922 24.98172295 -4.0625 24.75 C-6.49091109 22.32158891 -5.29620043 16.07445062 -5.3125 12.8125 C-5.333125 11.78447266 -5.35375 10.75644531 -5.375 9.69726562 C-5.38015625 8.71564453 -5.3853125 7.73402344 -5.390625 6.72265625 C-5.3999707 5.81781494 -5.40931641 4.91297363 -5.41894531 3.98071289 C-5.30131836 3.24457764 -5.18369141 2.50844238 -5.0625 1.75 C-2.0625 -0.25 -2.0625 -0.25 0 0 Z " fill="#28B5E8" transform="translate(41.0625,0.25)"/>
<path d="M0 0 C4.875 0.875 4.875 0.875 6 2 C6.0991657 3.62257544 6.13079777 5.24939831 6.1328125 6.875 C6.13474609 8.35226562 6.13474609 8.35226562 6.13671875 9.859375 C6.13285156 10.89578125 6.12898438 11.9321875 6.125 13 C6.13080078 14.55460938 6.13080078 14.55460938 6.13671875 16.140625 C6.13542969 17.12546875 6.13414063 18.1103125 6.1328125 19.125 C6.13168457 20.03507812 6.13055664 20.94515625 6.12939453 21.8828125 C6 24 6 24 5 25 C-0.38715287 25.63805859 -3.85357227 23.80537352 -8.3125 21.0625 C-8.94478516 20.68931641 -9.57707031 20.31613281 -10.22851562 19.93164062 C-14.76971726 17.23028274 -14.76971726 17.23028274 -16 16 C-16.04080783 14.00041636 -16.04254356 11.99954746 -16 10 C-14 8.75 -14 8.75 -11 8 C-8.14731103 9.02296056 -5.59375835 10.44245777 -3 12 C-3.061875 10.7625 -3.12375 9.525 -3.1875 8.25 C-3.20362826 5.21788698 -3.10651023 4.17751704 -1.5 1.5 C-1.005 1.005 -0.51 0.51 0 0 Z " fill="#28B5E8" transform="translate(23,0)"/>
<path d="M0 0 C2.37599082 1.26865332 4.5690946 2.5367983 6.8125 4 C7.39708984 4.36867188 7.98167969 4.73734375 8.58398438 5.1171875 C12.78447421 7.78447421 12.78447421 7.78447421 14 9 C14.31640625 11.37109375 14.31640625 11.37109375 14 14 C12.27734375 15.66015625 12.27734375 15.66015625 9.9375 17.0625 C9.11636719 17.56007813 8.29523437 18.05765625 7.44921875 18.5703125 C6.64097656 19.04210937 5.83273437 19.51390625 5 20 C4.34644531 20.43054688 3.69289063 20.86109375 3.01953125 21.3046875 C0.21253284 23.1016622 -1.50307435 24.03240819 -4.875 23.8125 C-7 23 -7 23 -8 22 C-8.04080783 20.00041636 -8.04254356 17.99954746 -8 16 C-5.69 14.68 -3.38 13.36 -1 12 C-1.78375 11.38125 -2.5675 10.7625 -3.375 10.125 C-6 8 -6 8 -8 6 C-8.125 2.875 -8.125 2.875 -8 0 C-5.01318256 -1.49340872 -3.21617762 -0.79167449 0 0 Z " fill="#28B4E8" transform="translate(8,22)"/>
<path d="M0 0 C4.23446796 0.38495163 7.16369757 2.06644054 10.70703125 4.24609375 C11.33931641 4.61927734 11.97160156 4.99246094 12.62304688 5.37695312 C17.16424851 8.07831101 17.16424851 8.07831101 18.39453125 9.30859375 C18.51953125 12.30859375 18.51953125 12.30859375 18.39453125 15.30859375 C17.39453125 16.30859375 17.39453125 16.30859375 14.70703125 16.55859375 C10.95885331 16.2757124 8.63233808 15.15876908 5.39453125 13.30859375 C5.43578125 14.56671875 5.47703125 15.82484375 5.51953125 17.12109375 C5.63356865 20.59923448 5.45378806 21.21970853 3.39453125 24.30859375 C0.33203125 24.55859375 0.33203125 24.55859375 -2.60546875 24.30859375 C-4.25940992 22.65465258 -3.73546558 20.70543962 -3.73828125 18.43359375 C-3.73957031 17.44875 -3.74085937 16.46390625 -3.7421875 15.44921875 C-3.73832031 14.4128125 -3.73445313 13.37640625 -3.73046875 12.30859375 C-3.73626953 10.75398438 -3.73626953 10.75398438 -3.7421875 9.16796875 C-3.74089844 8.183125 -3.73960938 7.19828125 -3.73828125 6.18359375 C-3.73715332 5.27351563 -3.73602539 4.3634375 -3.73486328 3.42578125 C-3.54258921 0.27974209 -3.15707019 0.37392585 0 0 Z " fill="#28B5E8" transform="translate(39.60546875,41.69140625)"/>
<path d="M0 0 C1.65394117 1.65394117 1.12999683 3.60315413 1.1328125 5.875 C1.13474609 7.35226563 1.13474609 7.35226563 1.13671875 8.859375 C1.13285156 9.89578125 1.12898438 10.9321875 1.125 12 C1.13080078 13.55460937 1.13080078 13.55460937 1.13671875 15.140625 C1.13542969 16.12546875 1.13414063 17.1103125 1.1328125 18.125 C1.13168457 19.03507812 1.13055664 19.94515625 1.12939453 20.8828125 C1 23 1 23 0 24 C-2.9375 24.25 -2.9375 24.25 -6 24 C-8.67927341 19.98108988 -8.15601248 17.75838077 -8 13 C-8.86625 13.495 -9.7325 13.99 -10.625 14.5 C-14.12078331 16.05368147 -16.23061056 16.35064088 -20 16 C-21 15 -21 15 -21.4609375 12.20703125 C-21 9 -21 9 -18.2265625 6.69921875 C-17.03896672 6.00601273 -15.83758504 5.33600276 -14.625 4.6875 C-14.02171875 4.34138672 -13.4184375 3.99527344 -12.796875 3.63867188 C-8.09941261 0.96111831 -5.44548922 -0.23172295 0 0 Z " fill="#28B4E8" transform="translate(28,42)"/>
<path d="M0 0 C3.13279262 1.28046682 4.84768198 3.21227103 6.96875 5.8046875 C7.59375 8.3046875 7.59375 8.3046875 6.96875 10.8046875 C4.67242517 13.75710514 3.14329513 15.51105122 -0.53125 16.4296875 C-4.20579513 15.51105122 -5.73492517 13.75710514 -8.03125 10.8046875 C-8.71875 8.3671875 -8.71875 8.3671875 -8.03125 5.8046875 C-3.59339795 -0.34551903 -3.59339795 -0.34551903 0 0 Z M-1.03125 5.8046875 C-1.36125 7.1246875 -1.69125 8.4446875 -2.03125 9.8046875 C-1.04125 9.8046875 -0.05125 9.8046875 0.96875 9.8046875 C0.63875 8.4846875 0.30875 7.1646875 -0.03125 5.8046875 C-0.36125 5.8046875 -0.69125 5.8046875 -1.03125 5.8046875 Z " fill="#28B5E7" transform="translate(33.03125,25.1953125)"/>
</svg>
